<?xml version="1.0" encoding="utf-8"?>
<!-- Generator: Adobe Illustrator 20.1.0, SVG Export Plug-In . SVG Version: 6.00 Build 0)  -->
<svg version="1.1" id="Calque_1" xmlns="http://www.w3.org/2000/svg" xmlns:xlink="http://www.w3.org/1999/xlink" x="0px" y="0px"
	 viewBox="0 0 1080.5 2333" style="enable-background:new 0 0 1080.5 2333;" xml:space="preserve">
<style type="text/css">
	.st0{fill:#F6F7F8;}
	.st1{fill:#E30D1B;}
	.st2{fill:#2E3E4E;}
	.st3{fill:#EF8068;}
	.st4{font-family:'Anton-Regular';}
	.st5{font-size:24px;}
	.st6{fill:#1B8EC0;}
	.st7{font-size:25px;}
	.st8{font-size:18px;}
	.st9{fill:#BCBCBC;}
	.st10{font-family:'OpenSans-CondensedLight';}
	.st11{font-size:14px;}
	.st12{font-size:13.1583px;}
	.st13{fill:#2C2C2C;}
	.st14{font-size:10.2343px;}
	.st15{fill:#1F8EBF;}
	.st16{fill:#FFFFFF;}
	.st17{fill:none;}
	.st18{font-size:13px;}
	.st19{font-family:'OpenSans-Regular';}
	.st20{font-size:17px;}
	.st21{fill:#EF8164;}
	.st22{fill:#B3B3B3;stroke:#2E3E4E;stroke-miterlimit:10;}
	.st23{clip-path:url(#SVGID_2_);fill:#E5AE77;}
	.st24{clip-path:url(#SVGID_2_);fill:#EEF1FA;}
	.st25{clip-path:url(#SVGID_2_);fill:#D19A6E;}
	.st26{clip-path:url(#SVGID_2_);fill:#EFBF85;}
	.st27{clip-path:url(#SVGID_2_);}
	.st28{fill:#E3EAF6;}
	.st29{clip-path:url(#SVGID_2_);fill:#5C5D6F;}
	.st30{clip-path:url(#SVGID_2_);fill:#515363;}
	.st31{clip-path:url(#SVGID_2_);fill:#785651;}
	.st32{clip-path:url(#SVGID_2_);fill:#694B4B;}
	.st33{clip-path:url(#SVGID_2_);fill:#5A4146;}
	.st34{clip-path:url(#SVGID_2_);fill:#E3EAF6;}
	.st35{fill:#EF8164;stroke:#2E3E4E;stroke-miterlimit:10;}
	.st36{clip-path:url(#SVGID_4_);fill:#E5AE77;}
	.st37{clip-path:url(#SVGID_4_);fill:#707486;}
	.st38{clip-path:url(#SVGID_4_);fill:#D19A6E;}
	.st39{clip-path:url(#SVGID_4_);fill:#EFBF85;}
	.st40{clip-path:url(#SVGID_4_);}
	.st41{fill:#5C5D6F;}
	.st42{clip-path:url(#SVGID_4_);fill:#515363;}
	.st43{clip-path:url(#SVGID_4_);fill:#785651;}
	.st44{clip-path:url(#SVGID_4_);fill:#694B4B;}
	.st45{clip-path:url(#SVGID_4_);fill:#5A4146;}
	.st46{clip-path:url(#SVGID_4_);fill:#5C5D6F;}
	.st47{clip-path:url(#SVGID_6_);fill:#694B4B;}
	.st48{clip-path:url(#SVGID_6_);fill:#5A4146;}
	.st49{clip-path:url(#SVGID_6_);fill:#785651;}
	.st50{clip-path:url(#SVGID_6_);fill:#E5AE77;}
	.st51{clip-path:url(#SVGID_6_);fill:#EEF1FA;}
	.st52{clip-path:url(#SVGID_6_);fill:#D19A6E;}
	.st53{clip-path:url(#SVGID_6_);}
	.st54{clip-path:url(#SVGID_6_);fill:#EFBF85;}
	.st55{clip-path:url(#SVGID_6_);fill:#E3EAF6;}
	.st56{font-size:11px;}
	.st57{fill:#2293C2;}
	.st58{font-size:10px;}
	.st59{font-size:12px;}
	.st60{fill:#1891C5;}
	.st61{fill:#1A9DD7;}
	.st62{fill:#EF7F5F;}
	.st63{font-size:19px;}
	.st64{fill:#0C81B8;}
	.st65{fill:#18A3D8;}
	.st66{fill:#EF835C;}
	.st67{font-family:'MyriadPro-Regular';}
	.st68{fill:#2D343A;}
	.st69{fill:#58616A;}
	.st70{font-size:33px;}
	.st71{font-family:'OpenSans-SemiBold';}
	.st72{font-size:21px;}
	.st73{clip-path:url(#SVGID_13_);fill:#1F8EBF;}
	.st74{clip-path:url(#SVGID_13_);}
	.st75{clip-path:url(#SVGID_15_);fill:#17A3D9;}
	.st76{clip-path:url(#SVGID_15_);}
	.st77{fill:#17A3D9;}
	.st78{fill:#2E3E4E;stroke:#2E3E4E;stroke-width:2;stroke-miterlimit:10;}
	.st79{clip-path:url(#SVGID_17_);fill:#BCBCBB;}
	.st80{clip-path:url(#SVGID_17_);}
	.st81{clip-path:url(#SVGID_17_);fill:#17A3D9;}
	.st82{fill:#424A60;}
	.st83{clip-path:url(#SVGID_19_);fill:none;stroke:#2C313D;stroke-width:1.6;stroke-linecap:round;stroke-miterlimit:10;}
	.st84{fill:#38454F;}
	.st85{fill:#80CDEB;}
	.st86{fill:#556080;}
	.st87{fill:#4A6CB1;}
	.st88{fill:#BF4E8F;}
	.st89{fill:#BCCBE9;}
	.st90{clip-path:url(#SVGID_21_);fill:none;stroke:#2C313D;stroke-width:1.6;stroke-linecap:round;stroke-miterlimit:10;}
	.st91{clip-path:url(#SVGID_23_);fill:none;stroke:#2C313D;stroke-width:1.6;stroke-linecap:round;stroke-miterlimit:10;}
	.st92{clip-path:url(#SVGID_25_);fill:none;stroke:#2C313D;stroke-width:1.6;stroke-linecap:round;stroke-miterlimit:10;}
	.st93{clip-path:url(#SVGID_27_);fill:none;stroke:#2C313D;stroke-width:1.6;stroke-linecap:round;stroke-miterlimit:10;}
	.st94{clip-path:url(#SVGID_29_);fill:none;stroke:#2C313D;stroke-width:1.6;stroke-linecap:round;stroke-miterlimit:10;}
	.st95{clip-path:url(#SVGID_31_);fill:none;stroke:#2C313D;stroke-width:1.6;stroke-linecap:round;stroke-miterlimit:10;}
	.st96{clip-path:url(#SVGID_33_);fill:none;stroke:#2C313D;stroke-width:1.6;stroke-linecap:round;stroke-miterlimit:10;}
	.st97{font-size:15px;}
</style>
<rect x="0.5" y="-2" class="st0" width="1080" height="2335"/>
<rect x="301.5" y="155.8" class="st1" width="477.3" height="40.7"/>
<rect x="0.5" y="66.2" class="st1" width="1080" height="412"/>
<rect y="2028.9" class="st2" width="1085.7" height="304.1"/>
<rect x="-7.8" y="734.5" class="st2" width="1109.5" height="444.2"/>
<text transform="matrix(1 0 0 1 151.8334 801)" class="st3 st4 st5">Excepteur sint occaecat</text>
<text transform="matrix(0.9433 0 0 1 459.708 1245.667)" class="st6 st4 st7">DUIS AUTE IRURE</text>
<text transform="matrix(1.0027 0 0 1 151.8349 1074.667)" class="st3 st4 st8">Ut enim ad minim</text>
<text transform="matrix(0.5396 0 0 1 151.834 1092.333)"><tspan x="0" y="0" class="st9 st10 st11">Lorem ipsum dolor sit amet, consectetur adipisicing elit, sed do eiusmod</tspan><tspan x="0" y="16.8" class="st9 st10 st11">tempor incididunt ut labore et dolore magna aliqua. Ut enim ad minim veniam,</tspan><tspan x="0" y="33.6" class="st9 st10 st11">quis nostrud exercitation.</tspan></text>
<text transform="matrix(0.9224 0 0 1 232.4308 644.5063)" class="st3 st4 st12">Titre</text>
<text transform="matrix(0.4964 0 0 1 183.9303 657.4204)"><tspan x="0" y="0" class="st13 st10 st14">Lorem ipsum dolor sit amet, consectetur adipisicing elit, sed do eiusmod</tspan><tspan x="-11.2" y="12.3" class="st13 st10 st14">tempor incididunt ut labore et dolore magna aliqua. Ut enim ad minim veniam,</tspan><tspan x="77.5" y="24.6" class="st13 st10 st14">quis nostrud exercitation.</tspan></text>
<text transform="matrix(0.9224 0 0 1 430.7224 644.5063)" class="st3 st4 st12">Titre</text>
<text transform="matrix(0.4964 0 0 1 382.2219 657.4204)"><tspan x="0" y="0" class="st13 st10 st14">Lorem ipsum dolor sit amet, consectetur adipisicing elit, sed do eiusmod</tspan><tspan x="-11.2" y="12.3" class="st13 st10 st14">tempor incididunt ut labore et dolore magna aliqua. Ut enim ad minim veniam,</tspan><tspan x="77.5" y="24.6" class="st13 st10 st14">quis nostrud exercitation.</tspan></text>
<text transform="matrix(0.9224 0 0 1 629.0142 644.5063)" class="st3 st4 st12">Titre</text>
<text transform="matrix(0.4964 0 0 1 580.5137 657.4204)"><tspan x="0" y="0" class="st13 st10 st14">Lorem ipsum dolor sit amet, consectetur adipisicing elit, sed do eiusmod</tspan><tspan x="-11.2" y="12.3" class="st13 st10 st14">tempor incididunt ut labore et dolore magna aliqua. Ut enim ad minim veniam,</tspan><tspan x="77.5" y="24.6" class="st13 st10 st14">quis nostrud exercitation.</tspan></text>
<text transform="matrix(0.9224 0 0 1 827.3062 644.5063)" class="st3 st4 st12">Titre</text>
<text transform="matrix(0.4964 0 0 1 778.8057 657.4204)"><tspan x="0" y="0" class="st13 st10 st14">Lorem ipsum dolor sit amet, consectetur adipisicing elit, sed do eiusmod</tspan><tspan x="-11.2" y="12.3" class="st13 st10 st14">tempor incididunt ut labore et dolore magna aliqua. Ut enim ad minim veniam,</tspan><tspan x="77.5" y="24.6" class="st13 st10 st14">quis nostrud exercitation.</tspan></text>
<text transform="matrix(1.0027 0 0 1 416.5005 1074.667)" class="st3 st4 st8">Excepteur sint occaecat</text>
<text transform="matrix(0.5396 0 0 1 416.4995 1092.333)"><tspan x="0" y="0" class="st9 st10 st11">Lorem ipsum dolor sit amet, consectetur adipisicing elit, sed do eiusmod</tspan><tspan x="0" y="16.8" class="st9 st10 st11">tempor incididunt ut labore et dolore magna aliqua. Ut enim ad minim veniam,</tspan><tspan x="0" y="33.6" class="st9 st10 st11">quis nostrud exercitation.</tspan></text>
<text transform="matrix(1.0027 0 0 1 680.8755 1074.667)" class="st3 st4 st8">Duis aute irure</text>
<text transform="matrix(0.5396 0 0 1 680.8745 1092.333)"><tspan x="0" y="0" class="st9 st10 st11">Lorem ipsum dolor sit amet, consectetur adipisicing elit, sed do eiusmod</tspan><tspan x="0" y="16.8" class="st9 st10 st11">tempor incididunt ut labore et dolore magna aliqua. Ut enim ad minim veniam,</tspan><tspan x="0" y="33.6" class="st9 st10 st11">quis nostrud exercitation.</tspan></text>
<rect x="850.2" y="777.8" class="st15" width="78.2" height="28.3"/>
<g>
	<rect x="155.3" y="861.7" class="st9" width="240.8" height="180.3"/>
	<path class="st16" d="M392.7,865.2v173.3H158.8V865.2H392.7 M399.7,858.2H151.8v187.3h247.8V858.2L399.7,858.2z"/>
</g>
<g>
	<rect x="420" y="861.7" class="st9" width="240.5" height="180.3"/>
	<path class="st16" d="M657,865.2v173.3H423.5V865.2H657 M664,858.2H416.5v187.3H664V858.2L664,858.2z"/>
</g>
<g>
	<rect x="684.4" y="861.7" class="st9" width="240.5" height="180.3"/>
	<path class="st16" d="M921.4,865.2v173.3H687.9V865.2H921.4 M928.4,858.2H680.9v187.3h247.5V858.2L928.4,858.2z"/>
</g>
<rect x="236.5" y="1270.7" class="st17" width="600.5" height="26.3"/>
<text transform="matrix(1 0 0 1 237.5278 1280.5469)"><tspan x="0" y="0" class="st13 st10 st18">Lorem ipsum dolor sit amet, consectetur adipisicing elit, sed do eiusmod tempor incididunt ut labore et dolore magna aliqua ut enim ad minim </tspan><tspan x="111.9" y="15.6" class="st13 st10 st18">venia aute irure dolor in reprehenderit in exercitation mut labore et dolore magna aliqua.</tspan></text>
<rect x="236.5" y="1830.7" class="st17" width="600.5" height="43.3"/>
<text transform="matrix(1 0 0 1 246.0151 1843.5869)"><tspan x="0" y="0" class="st13 st19 st20">«Lorem ipsum dolor sit amet, consectetur adipisicing elit, sed do eiusmod </tspan><tspan x="38.5" y="20.4" class="st13 st19 st20">tempor incididunt ut labore et dolore magna aliqua ut enim ad»</tspan></text>
<g>
	<rect x="156.9" y="1350" class="st9" width="381.2" height="189.1"/>
	<path class="st2" d="M534.6,1353.5v182.1H160.4v-182.1H534.6 M541.6,1346.5H153.4v196.1h388.2V1346.5L541.6,1346.5z"/>
</g>
<g>
	<rect x="545.1" y="1546.1" class="st9" width="381" height="189.1"/>
	<path class="st2" d="M922.6,1549.6v182.1h-374v-182.1H922.6 M929.6,1542.6h-388v196.1h388V1542.6L929.6,1542.6z"/>
</g>
<text transform="matrix(1 0 0 1 487.856 1805.667)" class="st6 st4 st5">ADIPISICING</text>
<text transform="matrix(1 0 0 1 450.0582 1917)" class="st21 st19 st18">Jon Doe / CEO of Loremipsum</text>
<text transform="matrix(1 0 0 1 153.4167 2090.5)" class="st21 st4 st8">LOREM</text>
<text transform="matrix(1 0 0 1 350.2889 2090.5)" class="st21 st4 st8">IPSUM</text>
<text transform="matrix(1 0 0 1 547.3099 2090.5)" class="st21 st4 st8">SI AMET</text>
<text transform="matrix(1 0 0 1 749.3608 2090.5)" class="st21 st4 st8">CONSECTETUR</text>
<circle class="st22" cx="480.5" cy="1970.6" r="28.2"/>
<g>
	<defs>
		<circle id="SVGID_1_" cx="480.5" cy="1970.6" r="28.2"/>
	</defs>
	<clipPath id="SVGID_2_">
		<use xlink:href="#SVGID_1_"  style="overflow:visible;"/>
	</clipPath>
	<polygon class="st23" points="487.5,1985.7 487.5,1980.3 473.5,1980.3 473.5,1985.7 480.5,1991.9 	"/>
	<path class="st24" d="M498.2,1988.3l-9.6-2.3c-0.1,0-0.3-0.1-0.4-0.2l-7.8,4.5l-7.5-4.7c-0.2,0.2-0.4,0.3-0.7,0.4l-9.6,2.3
		c-1.4,0.3-2.4,1.6-2.4,3v6.1c0,0.9,0.7,1.5,1.5,1.5h37.1c0.9,0,1.5-0.7,1.5-1.5v-6.1C500.6,1989.8,499.6,1988.6,498.2,1988.3z"/>
	<path class="st25" d="M473.5,1980.3v5.7c8.8,3.2,13.9-4.7,13.9-4.7v-1H473.5L473.5,1980.3z"/>
	<path class="st26" d="M470.4,1962.5l0.7,14.8c0.1,1.4,0.7,2.7,1.9,3.5l3.2,2.4c0.8,0.6,1.8,0.9,2.8,0.9h3.1c1,0,2-0.3,2.8-0.9
		l3.2-2.4c1.1-0.8,1.8-2.1,1.9-3.5l0.7-14.8H470.4z"/>
	<path class="st23" d="M478.2,1965.6c3.1,0,7.7-0.8,8.8-3.1h-16.6l0.7,14.8c0.1,1.4,0.7,2.7,1.9,3.5l3.2,2.4
		c0.8,0.6,1.8,0.9,2.8,0.9h1.5c-1.5,0-4.6-3.1-4.6-7c0-1.9,0-7,0-9.3C475.9,1967.2,476.6,1965.6,478.2,1965.6z"/>
	<g class="st27">
		<path class="st28" d="M494.9,1993.9l5-4.5c0.4,0.5,0.7,1.2,0.7,1.9v6.1c0,0.9-0.7,1.5-1.5,1.5h-5.4v-2.1
			C493.7,1995.6,494.1,1994.6,494.9,1993.9z"/>
		<path class="st28" d="M466.1,1993.9l-5-4.5c-0.4,0.5-0.7,1.2-0.7,1.9v6.1c0,0.9,0.7,1.5,1.5,1.5h5.4v-2.1
			C467.3,1995.6,466.9,1994.6,466.1,1993.9z"/>
	</g>
	<polygon class="st29" points="482.4,1998.9 478.6,1998.9 479,1991.9 482,1991.9 	"/>
	<path class="st30" d="M482.4,1990.4h-3.9v0.4c0,1,0.8,1.9,1.9,1.9h0.1c1,0,1.9-0.8,1.9-1.9L482.4,1990.4L482.4,1990.4z"/>
	<g class="st27">
		<path class="st28" d="M473.4,1984l7.1,6.4c0,0-2,1-4.4,3c-0.5,0.4-1.3,0.2-1.5-0.3l-3.3-7.3l1.1-1.6
			C472.5,1983.8,473.1,1983.7,473.4,1984z"/>
		<path class="st28" d="M487.6,1984l-7.1,6.4c0,0,2,1,4.4,3c0.5,0.4,1.3,0.2,1.5-0.3l3.3-7.3l-1.1-1.6
			C488.5,1983.8,487.9,1983.7,487.6,1984z"/>
	</g>
	<path class="st31" d="M485.2,1957.4l0.7,5.1c3.3,0.7,3.8,5.9,3.9,7.3c0,0.3,0.1,0.5,0.2,0.8l1.3,2c0,0-0.4-3.2,1.5-5.4
		C492.8,1967.2,493.5,1954.3,485.2,1957.4z"/>
	<path class="st26" d="M492.1,1972.3l-0.9,3.5c-0.1,0.4-0.5,0.7-0.9,0.7l0,0c-0.5,0-0.9-0.3-0.9-0.8l-0.4-3.6
		c-0.1-1,0.6-1.8,1.6-1.8h0C491.5,1970.3,492.3,1971.2,492.1,1972.3z"/>
	<path class="st32" d="M471.2,1956l1.1,0.8c-5.2,3.8-4.2,10.4-4.2,10.4c1.5,1.5,1.5,5.4,1.5,5.4l1.5-1.5c0,0-0.6-4.5,2.3-6.2
		c2.7-1.6,5.1-0.8,7.5-0.8c6.5,0,8.3-2.4,8-5.4c-0.2-1.5-2.5-4.7-8.5-4.6C478.1,1954.1,473.5,1954.8,471.2,1956z"/>
	<path class="st33" d="M470.7,1963.4c0,0-0.8-3.2,1.6-6.6c-5.2,3.8-4.2,10.4-4.2,10.4c1.5,1.5,1.5,5.4,1.5,5.4l1.5-1.5
		c0,0-0.6-4.5,2.3-6.2c2.7-1.6,5.1-0.8,7.5-0.8c1.1,0,2-0.1,2.8-0.2C478.8,1964,475.9,1960.3,470.7,1963.4z"/>
	<path class="st23" d="M468.9,1972.3l0.9,3.5c0.1,0.4,0.5,0.7,0.9,0.7l0,0c0.5,0,0.9-0.3,0.9-0.8l0.4-3.6c0.1-1-0.6-1.8-1.6-1.8h0
		C469.5,1970.3,468.7,1971.2,468.9,1972.3z"/>
	<path class="st34" d="M489.8,1997.3h-3.9c-0.9,0-1.5,0.7-1.5,1.5l0,0h7l0,0C491.3,1998,490.6,1997.3,489.8,1997.3z"/>
</g>
<circle class="st35" cx="540.5" cy="1970.6" r="28.2"/>
<g>
	<defs>
		<circle id="SVGID_3_" cx="540.5" cy="1970.6" r="28.2"/>
	</defs>
	<clipPath id="SVGID_4_">
		<use xlink:href="#SVGID_3_"  style="overflow:visible;"/>
	</clipPath>
	<polygon class="st36" points="548.1,1985.4 548.1,1979.9 533.9,1979.9 533.9,1985.4 541,1991.7 	"/>
	<path class="st37" d="M559,1988l-9.7-2.3c-0.1,0-0.3-0.1-0.4-0.2l-7.9,4.6l-7.6-4.8c-0.2,0.2-0.4,0.3-0.7,0.4l-9.7,2.3
		c-1.4,0.3-2.4,1.6-2.4,3.1v6.2c0,0.9,0.7,1.6,1.6,1.6h37.7c0.9,0,1.6-0.7,1.6-1.6v-6.2C561.4,1989.6,560.4,1988.3,559,1988z"/>
	<path class="st38" d="M533.9,1979.9v5.8c8.9,3.2,14.2-4.8,14.2-4.8v-1H533.9z"/>
	<path class="st39" d="M530.8,1961.8l0.7,15.1c0.1,1.4,0.8,2.7,1.9,3.6l3.3,2.4c0.8,0.6,1.8,0.9,2.8,0.9h3.1c1,0,2-0.3,2.8-0.9
		l3.3-2.4c1.1-0.8,1.8-2.2,1.9-3.6l0.7-15.1H530.8z"/>
	<path class="st36" d="M538.6,1965c3.1,0,7.9-0.8,9-3.1h-16.8l0.7,15.1c0.1,1.4,0.8,2.7,1.9,3.6l3.3,2.4c0.8,0.6,1.8,0.9,2.8,0.9
		h1.6c-1.6,0-4.7-3.1-4.7-7.1c0-1.9,0-7.1,0-9.4C536.3,1966.6,537.1,1965,538.6,1965z"/>
	<g class="st40">
		<path class="st41" d="M555.7,1993.7l5.1-4.6c0.4,0.5,0.7,1.2,0.7,1.9v6.2c0,0.9-0.7,1.6-1.6,1.6h-5.5v-2.2
			C554.4,1995.5,554.8,1994.4,555.7,1993.7z"/>
		<path class="st41" d="M526.3,1993.7l-5.1-4.6c-0.4,0.5-0.7,1.2-0.7,1.9v6.2c0,0.9,0.7,1.6,1.6,1.6h5.5v-2.2
			C527.6,1995.5,527.2,1994.4,526.3,1993.7z"/>
		<polygon class="st41" points="543,1998.8 539,1998.8 539.5,1991.7 542.5,1991.7 		"/>
	</g>
	<path class="st42" d="M543,1990.1H539v0.5c0,1.1,0.9,1.9,1.9,1.9h0.1c1.1,0,1.9-0.9,1.9-1.9L543,1990.1L543,1990.1z"/>
	<g class="st40">
		<path class="st41" d="M533.8,1983.7l7.2,6.5c0,0-2,1-4.5,3.1c-0.5,0.4-1.3,0.3-1.6-0.4l-3.4-7.4l1.1-1.6
			C532.9,1983.4,533.5,1983.4,533.8,1983.7z"/>
		<path class="st41" d="M548.2,1983.7l-7.2,6.5c0,0,2,1,4.5,3.1c0.5,0.4,1.3,0.3,1.6-0.4l3.4-7.4l-1.1-1.6
			C549.1,1983.4,548.5,1983.4,548.2,1983.7z"/>
	</g>
	<path class="st43" d="M545.8,1956.6l0.7,5.2c3.4,0.7,3.8,6,3.9,7.5c0,0.3,0.1,0.5,0.2,0.8l1.3,2c0,0-0.4-3.3,1.6-5.5
		C553.5,1966.6,554.2,1953.5,545.8,1956.6z"/>
	<path class="st39" d="M552.7,1971.7l-0.9,3.6c-0.1,0.4-0.5,0.7-0.9,0.7l0,0c-0.5,0-0.9-0.4-0.9-0.8l-0.5-3.6
		c-0.1-1,0.6-1.8,1.6-1.8h0C552.2,1969.7,553,1970.7,552.7,1971.7z"/>
	<path class="st44" d="M531.5,1955.2l1.2,0.8c-5.3,3.9-4.3,10.5-4.3,10.5c1.6,1.6,1.6,5.5,1.6,5.5l1.6-1.6c0,0-0.6-4.5,2.4-6.3
		c2.8-1.6,5.2-0.8,7.6-0.8c6.6,0,8.4-2.5,8.1-5.5c-0.2-1.6-2.6-4.8-8.6-4.7C538.5,1953.2,533.9,1954,531.5,1955.2z"/>
	<path class="st45" d="M531.1,1962.7c0,0-0.8-3.3,1.6-6.7c-5.3,3.9-4.3,10.5-4.3,10.5c1.6,1.6,1.6,5.5,1.6,5.5l1.6-1.6
		c0,0-0.6-4.5,2.4-6.3c2.8-1.6,5.2-0.8,7.6-0.8c1.1,0,2-0.1,2.8-0.2C539.3,1963.4,536.3,1959.5,531.1,1962.7z"/>
	<path class="st36" d="M529.3,1971.7l0.9,3.6c0.1,0.4,0.5,0.7,0.9,0.7l0,0c0.5,0,0.9-0.4,0.9-0.8l0.5-3.6c0.1-1-0.6-1.8-1.6-1.8h0
		C529.8,1969.7,529,1970.7,529.3,1971.7z"/>
	<path class="st46" d="M550.4,1997.2h-3.9c-0.9,0-1.6,0.7-1.6,1.6l0,0h7.1l0,0C552,1997.9,551.3,1997.2,550.4,1997.2z"/>
</g>
<circle class="st22" cx="600.5" cy="1970.6" r="28.2"/>
<g>
	<defs>
		<circle id="SVGID_5_" cx="600.5" cy="1970.6" r="28.2"/>
	</defs>
	<clipPath id="SVGID_6_">
		<use xlink:href="#SVGID_5_"  style="overflow:visible;"/>
	</clipPath>
	<path class="st47" d="M600.5,1953.7c-15.8,0-14.1,19.3-14,33.2c0,0.5,0.3,1,0.7,1.3c1.8,1.1,6.6,3.5,13.3,3.5
		c6.7,0,11.5-2.5,13.3-3.5c0.5-0.3,0.7-0.7,0.7-1.3C614.6,1972.9,616.3,1953.7,600.5,1953.7z"/>
	<path class="st48" d="M599.5,1953.7c-14.7,0.8-13.1,19.5-13,33.2c0,0.5,0.3,1,0.7,1.3c1.8,1.1,6.6,3.5,13.3,3.5l4-28"/>
	<path class="st47" d="M600.5,1953.7c-9,0-9.6,10.9-9.6,10.9c5.2-0.9,8.4,1.3,13.6-0.9l-4,28c6.7,0,11.5-2.5,13.3-3.5
		c0.5-0.3,0.7-0.7,0.7-1.3C614.6,1972.9,616.3,1953.7,600.5,1953.7z"/>
	<path class="st49" d="M614.5,1986.9c0.1-12,1.4-27.9-8.3-32.1c-0.2,0.9-0.5,3.3,0.3,4.9c2,4,4,4,6,7c2,11-3.8,22.7-5.8,24.3l0,0
		c3.4-0.8,5.9-2.1,7-2.8C614.2,1987.9,614.5,1987.4,614.5,1986.9z"/>
	<path class="st50" d="M615.7,1989.9l-8.9-3.7c-0.7-0.3-1.2-1-1.2-1.8v-2.4h-10v2.4c0,0.8-0.5,1.5-1.2,1.8l-8.9,3.7
		c-1.1,0.5-1.8,1.6-1.8,2.8v4c0,1.1,0.9,2,2,2h30c1.1,0,2-0.9,2-2v-4C617.5,1991.5,616.8,1990.4,615.7,1989.9z"/>
	<path class="st51" d="M615.7,1989.9l-8.6-3.6l-6.5,2.8l-6.5-2.8l-8.6,3.6c-1.1,0.5-1.8,1.6-1.8,2.8v4c0,1.1,0.9,2,2,2h30
		c1.1,0,2-0.9,2-2v-4C617.5,1991.5,616.8,1990.4,615.7,1989.9z"/>
	<path class="st52" d="M605.5,1981.9h-10v2.4c0,0.8-0.5,1.5-1.2,1.8l-1.4,0.6C603.5,1989.5,605.5,1981.9,605.5,1981.9z"/>
	<g class="st53">
		<path class="st28" d="M588.4,1993.8l-4-3.2c-0.5,0.6-0.9,1.3-0.9,2.1v4c0,1.1,0.9,2,2,2h4v-2.6
			C589.5,1995.2,589.1,1994.4,588.4,1993.8z"/>
		<path class="st28" d="M617.5,1996.7v-4c0-0.8-0.3-1.5-0.8-2.1l-4,3.2c-0.7,0.6-1.1,1.4-1.1,2.3v2.6h4
			C616.6,1998.7,617.5,1997.8,617.5,1996.7z"/>
		<path class="st28" d="M600.7,1996.7h-0.3c-0.5,0-0.9-0.4-0.9-0.9v-6.7h2v6.7C601.5,1996.3,601.1,1996.7,600.7,1996.7z"/>
		<path class="st28" d="M600.5,1989.1l-5.7-4.3c-0.4-0.3-0.9-0.2-1.1,0.2l-1.1,1.7l3.5,4.9c0.3,0.4,0.8,0.4,1.2,0.2L600.5,1989.1z"
			/>
		<path class="st28" d="M600.5,1989.1l5.7-4.3c0.4-0.3,0.9-0.2,1.1,0.2l1.1,1.7l-3.5,4.9c-0.3,0.4-0.8,0.4-1.2,0.2L600.5,1989.1z"/>
	</g>
	<path class="st54" d="M605.5,1962.7c-5,5-14.8,1-14.8,9l0.6,5.9c0.1,1.3,0.9,2.5,2,3.1l5.7,3.2c0.9,0.5,2,0.5,2.9,0l5.7-3.2
		c1.2-0.6,1.9-1.8,2-3.1l0.7-7c0.1-0.5,0.1-1,0-1.5C610.1,1966.5,606.5,1964.7,605.5,1962.7z"/>
	<path class="st50" d="M590.7,1971.7l0.6,5.9c0.1,1.3,0.9,2.5,2,3.1l5.7,3.2c0.6,0.3,1.4,0.4,2,0.3l0,0c0,0-2.9-0.9-4.6-5.5
		c-0.5-1.4-1.3-8.9-0.6-9.8c1.2-1.8,8.1-2,10.2-5.4c-0.1-0.1-0.2-0.2-0.3-0.4c0,0,0,0,0,0c-0.1-0.1-0.2-0.3-0.2-0.4
		C600.5,1967.7,590.7,1963.7,590.7,1971.7z"/>
	<path class="st55" d="M607.8,1996.7h-2.6c-0.9,0-1.7,0.8-1.7,1.7v0.3h6v-0.3C609.5,1997.5,608.7,1996.7,607.8,1996.7z"/>
</g>
<rect x="452.3" y="2023.8" class="st2" width="56.3" height="5.1"/>
<rect x="512.3" y="2023.8" class="st21" width="56.3" height="5.1"/>
<path class="st21" d="M537.9,2026.2v-5.9c0-1.4,1.1-2.6,2.6-2.6l0,0c1.4,0,2.6,1.1,2.6,2.6v5.9c0,1.4-1.1,2.6-2.6,2.6l0,0
	C539.1,2028.7,537.9,2027.6,537.9,2026.2z"/>
<rect x="572.3" y="2023.8" class="st2" width="56.3" height="5.1"/>
<text transform="matrix(1 0 0 1 152.5 2114.5)" class="st9 st10 st56">Excepteur sint occaecat cupidatat </text>
<text transform="matrix(1 0 0 1 152.5 2131.1667)" class="st57 st10 st58">http://loremipsum.fr</text>
<text transform="matrix(1 0 0 1 152.5 2148.1667)" class="st9 st10 st58">1 week ago</text>
<text transform="matrix(1 0 0 1 614.0417 2114.5)" class="st9 st10 st56">Excepteur sint occaecat </text>
<text transform="matrix(1 0 0 1 614.0417 2131.1667)" class="st57 st10 st58">http://loremipsum.fr</text>
<text transform="matrix(1 0 0 1 614.0417 2148.1667)" class="st9 st10 st58">1 week ago</text>
<text transform="matrix(1 0 0 1 152.5 2181.5)" class="st9 st10 st56">Excepteur sint occaecat cupidatat </text>
<text transform="matrix(1 0 0 1 152.5 2198.1667)" class="st57 st10 st58">http://loremipsum.fr</text>
<text transform="matrix(1 0 0 1 152.5 2215.1667)" class="st9 st10 st58">1 week ago</text>
<text transform="matrix(1 0 0 1 152.5 2250.25)" class="st9 st10 st56">Excepteur sint occaecat cupidatat </text>
<text transform="matrix(1 0 0 1 152.5 2266.9167)" class="st57 st10 st58">http://loremipsum.fr</text>
<text transform="matrix(1 0 0 1 152.5 2283.9167)" class="st9 st10 st58">1 week ago</text>
<rect x="350.6" y="2105.7" class="st17" width="182.4" height="46"/>
<text transform="matrix(1 0 0 1 350.5833 2114.7871)"><tspan x="0" y="0" class="st9 st10 st59">Excepteur sint occaecat cupidatat non </tspan><tspan x="0" y="17" class="st9 st10 st59">proident, sunt in culpa qui officia deserunt </tspan><tspan x="0" y="34" class="st9 st10 st59">mollit anim id.</tspan></text>
<text transform="matrix(1 0 0 1 349.6875 2183)" class="st60 st10 st59">Lore ipsum</text>
<rect x="350.5" y="2195.5" class="st16" width="181.3" height="26"/>
<rect x="467.2" y="2234" class="st3" width="65.1" height="23"/>
<rect x="548.8" y="2104" class="st16" width="49.5" height="49.5"/>
<rect x="548.8" y="2160.2" class="st16" width="181.4" height="2"/>
<text transform="matrix(1 0 0 1 614.0417 2179.5605)" class="st9 st10 st56">Excepteur sint occaecat </text>
<text transform="matrix(1 0 0 1 614.0417 2196.2271)" class="st57 st10 st58">http://loremipsum.fr</text>
<text transform="matrix(1 0 0 1 614.0417 2213.2271)" class="st9 st10 st58">1 week ago</text>
<rect x="548.8" y="2169.1" class="st16" width="49.5" height="49.5"/>
<rect x="548.8" y="2225.3" class="st16" width="181.4" height="2"/>
<text transform="matrix(1 0 0 1 614.0417 2244.6208)" class="st9 st10 st56">Excepteur sint occaecat </text>
<text transform="matrix(1 0 0 1 614.0417 2261.2876)" class="st57 st10 st58">http://loremipsum.fr</text>
<text transform="matrix(1 0 0 1 614.0417 2278.2876)" class="st9 st10 st58">1 week ago</text>
<rect x="548.8" y="2234.1" class="st16" width="49.5" height="49.5"/>
<rect x="350.6" y="2160.3" class="st16" width="181.7" height="2"/>
<g>
	<path class="st61" d="M791.4,2141.5c-0.1-0.9-0.7-1.8-1.5-2.2l-9.7-5.6c-1.2-0.7-2.7-0.5-3.7,0.5l-1.9,1.9
		c-0.5,0.5-1.3,0.6-1.9,0.1c-1.5-1.2-3-2.6-4.4-4c-1.4-1.4-2.8-2.9-4-4.4c-0.5-0.6-0.4-1.4,0.1-1.9l1.9-1.9c1-1,1.2-2.5,0.5-3.7
		l-5.6-9.7c-0.5-0.8-1.3-1.4-2.2-1.5c-0.9-0.1-1.9,0.2-2.6,0.9l-2.9,2.9c-2,2-2,5.7-0.1,10.4c1.9,4.5,5.4,9.5,9.9,13.9
		c4.5,4.5,9.4,8,13.9,9.9c2.3,1,4.4,1.4,6.1,1.4c1.8,0,3.3-0.5,4.3-1.5l2.9-2.9C791.2,2143.4,791.5,2142.4,791.4,2141.5
		L791.4,2141.5z M779.5,2134.8l9.7,5.6c0.5,0.3,0.8,0.8,0.9,1.3c0.1,0.5-0.1,0.9-0.3,1.3l-12.9-7.4l0.5-0.5
		C777.9,2134.5,778.8,2134.4,779.5,2134.8L779.5,2134.8z M758.8,2110.3c0.6,0.1,1,0.4,1.3,0.9l5.6,9.7c0.4,0.7,0.3,1.6-0.3,2.1
		l-0.5,0.5l-7.4-12.9c0.3-0.2,0.7-0.3,1-0.3C758.6,2110.3,758.7,2110.3,758.8,2110.3L758.8,2110.3z M786.7,2146
		c-1.6,1.6-4.9,1.5-9-0.2c-4.4-1.8-9.2-5.2-13.5-9.6c-4.4-4.4-7.8-9.2-9.6-13.5c-1.7-4.1-1.8-7.4-0.2-9l2.1-2.1l7.4,12.9l-0.5,0.5
		c-1,1-1.1,2.5-0.2,3.6c1.2,1.5,2.6,3.1,4.1,4.5c1.5,1.5,3,2.8,4.5,4.1c1.1,0.9,2.6,0.8,3.6-0.2l0.5-0.5l13,7.4L786.7,2146
		L786.7,2146z"/>
</g>
<g>
	<path class="st61" d="M779.3,2174.1h-16.6c-1.6,0-2.9,1.3-2.9,2.9v33.7c0,1.6,1.3,2.9,2.9,2.9h16.6c1.6,0,2.9-1.3,2.9-2.9V2177
		C782.2,2175.4,780.9,2174.1,779.3,2174.1z M761.2,2179.3h19.7v25h-19.7V2179.3z M762.8,2175.4h16.6c0.9,0,1.6,0.7,1.6,1.6v1h-19.7
		v-1C761.2,2176.1,761.9,2175.4,762.8,2175.4z M779.3,2212.2h-16.6c-0.9,0-1.6-0.7-1.6-1.6v-5h19.7v5
		C780.9,2211.5,780.2,2212.2,779.3,2212.2z"/>
	<path class="st61" d="M771,2206.3c-1.5,0-2.6,1.2-2.6,2.6s1.2,2.6,2.6,2.6s2.6-1.2,2.6-2.6S772.5,2206.3,771,2206.3z M771,2210.2
		c-0.7,0-1.3-0.6-1.3-1.3c0-0.7,0.6-1.3,1.3-1.3s1.3,0.6,1.3,1.3C772.4,2209.7,771.8,2210.2,771,2210.2z"/>
	<path class="st61" d="M768.4,2177.4h2.6c0.4,0,0.7-0.3,0.7-0.7c0-0.4-0.3-0.7-0.7-0.7h-2.6c-0.4,0-0.7,0.3-0.7,0.7
		C767.8,2177.1,768,2177.4,768.4,2177.4z"/>
	<path class="st61" d="M773,2177.4h0.7c0.4,0,0.7-0.3,0.7-0.7c0-0.4-0.3-0.7-0.7-0.7H773c-0.4,0-0.7,0.3-0.7,0.7
		C772.4,2177.1,772.7,2177.4,773,2177.4z"/>
	<path class="st61" d="M788.5,2177.1c-0.3-0.3-0.7-0.3-0.9,0s-0.3,0.7,0,0.9c2.5,2.5,2.5,6.5,0,8.9c-0.3,0.3-0.3,0.7,0,0.9
		c0.1,0.1,0.3,0.2,0.5,0.2c0.2,0,0.3-0.1,0.5-0.2C791.5,2184.9,791.5,2180.1,788.5,2177.1z"/>
	<path class="st61" d="M785.8,2178.6c-0.3-0.3-0.7-0.3-0.9,0c-0.3,0.3-0.3,0.7,0,0.9c0.8,0.8,1.3,1.9,1.3,3.1s-0.4,2.2-1.3,3
		c-0.3,0.3-0.3,0.7,0,0.9c0.1,0.1,0.3,0.2,0.5,0.2c0.2,0,0.3-0.1,0.5-0.2c1.1-1.1,1.6-2.5,1.6-4S786.8,2179.6,785.8,2178.6z"/>
	<path class="st61" d="M754.5,2178c0.3-0.3,0.3-0.7,0-0.9s-0.7-0.3-0.9,0c-3,3-3,7.8,0,10.8c0.1,0.1,0.3,0.2,0.5,0.2
		s0.3-0.1,0.5-0.2c0.3-0.3,0.3-0.7,0-0.9C752,2184.5,752,2180.5,754.5,2178z"/>
	<path class="st61" d="M757.2,2178.4c-0.3-0.3-0.7-0.3-0.9,0c-1.1,1.1-1.6,2.5-1.6,4s0.6,2.9,1.6,4c0.1,0.1,0.3,0.2,0.5,0.2
		c0.2,0,0.3-0.1,0.5-0.2c0.3-0.3,0.3-0.7,0-0.9c-0.8-0.8-1.3-1.9-1.3-3.1s0.4-2.2,1.3-3C757.5,2179.1,757.5,2178.7,757.2,2178.4z"/>
</g>
<g>
	<g>
		<path class="st61" d="M780.6,2264.9c-0.1,0-0.2,0-0.3-0.1l-5.8-5.4c-0.2-0.2-0.2-0.5,0-0.7c0.2-0.2,0.5-0.2,0.7,0l5.8,5.4
			c0.2,0.2,0.2,0.5,0,0.7C780.9,2264.8,780.8,2264.9,780.6,2264.9z"/>
		<path class="st61" d="M761.4,2264.9c-0.1,0-0.3-0.1-0.4-0.2c-0.2-0.2-0.2-0.5,0-0.7l5.8-5.4c0.2-0.2,0.5-0.2,0.7,0
			c0.2,0.2,0.2,0.5,0,0.7l-5.8,5.4C761.7,2264.8,761.6,2264.9,761.4,2264.9z"/>
	</g>
	<path class="st61" d="M784,2269.9h-26c-1.4,0-2.5-1.1-2.5-2.5v-17c0-1.4,1.1-2.5,2.5-2.5h26c1.4,0,2.5,1.1,2.5,2.5v17
		C786.5,2268.8,785.4,2269.9,784,2269.9z M758,2248.8c-0.8,0-1.5,0.7-1.5,1.5v17c0,0.8,0.7,1.5,1.5,1.5h26c0.8,0,1.5-0.7,1.5-1.5
		v-17c0-0.8-0.7-1.5-1.5-1.5H758z"/>
	<path class="st61" d="M771,2261.4c-0.7,0-1.3-0.2-1.8-0.7l-12.8-11.2c-0.2-0.2-0.2-0.5,0-0.7c0.2-0.2,0.5-0.2,0.7,0l12.8,11.2
		c0.6,0.6,1.7,0.6,2.4,0l12.8-11.2c0.2-0.2,0.5-0.2,0.7,0c0.2,0.2,0.2,0.5,0,0.7l-12.8,11.2C772.4,2261.1,771.7,2261.4,771,2261.4z"
		/>
</g>
<g>
	<g>
		<path class="st16" d="M486,2248.4c-0.1,0-0.1,0-0.2-0.1l-2.7-2.6c-0.1-0.1-0.1-0.2,0-0.3c0.1-0.1,0.2-0.1,0.3,0l2.7,2.6
			c0.1,0.1,0.1,0.2,0,0.3C486.1,2248.3,486.1,2248.4,486,2248.4z"/>
		<path class="st16" d="M476.8,2248.4c-0.1,0-0.1,0-0.2-0.1c-0.1-0.1-0.1-0.2,0-0.3l2.7-2.6c0.1-0.1,0.2-0.1,0.3,0
			c0.1,0.1,0.1,0.2,0,0.3l-2.7,2.6C477,2248.3,476.9,2248.4,476.8,2248.4z"/>
	</g>
	<path class="st16" d="M487.6,2250.8h-12.4c-0.7,0-1.2-0.5-1.2-1.2v-8.1c0-0.7,0.5-1.2,1.2-1.2h12.4c0.7,0,1.2,0.5,1.2,1.2v8.1
		C488.8,2250.2,488.3,2250.8,487.6,2250.8z M475.2,2240.7c-0.4,0-0.7,0.3-0.7,0.7v8.1c0,0.4,0.3,0.7,0.7,0.7h12.4
		c0.4,0,0.7-0.3,0.7-0.7v-8.1c0-0.4-0.3-0.7-0.7-0.7H475.2z"/>
	<path class="st16" d="M481.4,2246.7c-0.3,0-0.6-0.1-0.9-0.3l-6.1-5.3c-0.1-0.1-0.1-0.2,0-0.3c0.1-0.1,0.2-0.1,0.3,0l6.1,5.3
		c0.3,0.3,0.8,0.3,1.1,0l6.1-5.3c0.1-0.1,0.2-0.1,0.3,0c0.1,0.1,0.1,0.2,0,0.3l-6.1,5.3C482,2246.6,481.7,2246.7,481.4,2246.7z"/>
</g>
<rect x="813" y="2114.5" class="st17" width="115.4" height="29.7"/>
<text transform="matrix(1 0 0 1 813.0308 2123.665)"><tspan x="0" y="0" class="st9 st10 st59">1-000-000-0000</tspan><tspan x="0" y="17" class="st9 st10 st59">1-000-000-0000</tspan></text>
<rect x="813" y="2179" class="st17" width="115.4" height="29.7"/>
<text transform="matrix(1 0 0 1 813.0308 2188.0815)"><tspan x="0" y="0" class="st9 st10 st59">1-000-000-0000</tspan><tspan x="0" y="17" class="st9 st10 st59">1-000-000-0000</tspan></text>
<rect x="813" y="2243.6" class="st17" width="115.4" height="29.7"/>
<text transform="matrix(1 0 0 1 813.0308 2252.7478)"><tspan x="0" y="0" class="st9 st10 st59">johndoe@mail.com</tspan><tspan x="0" y="17" class="st9 st10 st59">johndoe@loremipsum.com</tspan></text>
<circle class="st62" cx="165.7" cy="35.1" r="8.1"/>
<rect x="176.4" y="27" class="st2" width="16.2" height="16.2"/>
<g>
	<text transform="matrix(1 0 0 1 197.8081 43.3966)" class="st13 st4 st63">Lorem Ipsum</text>
</g>
<rect x="416.6" y="49.9" class="st64" width="63" height="16.3"/>
<path class="st65" d="M479.6-0.8v58.4h-27.9l-1.5-3.9c-1-2.5-4.4-2.4-5.2,0.2l-1.1,3.7h-27.3V-0.8H479.6z"/>
<text transform="matrix(1 0 0 1 434.1355 40.0417)" class="st16 st4 st18">HOME</text>
<text transform="matrix(1 0 0 1 507.3337 40.0417)" class="st13 st4 st18">Portfolio</text>
<text transform="matrix(1 0 0 1 596.5838 40.0417)" class="st13 st4 st18">About</text>
<text transform="matrix(1 0 0 1 672.3338 40.0417)" class="st13 st4 st18">Contact</text>
<rect x="741.8" y="25.5" class="st66" width="55.8" height="19"/>
<text transform="matrix(1 0 0 1 756.6206 39.1667)" class="st16 st67 st18">Blog</text>
<g>
	<defs>
		<path id="SVGID_7_" d="M1080.5,480H-6.8V66.2h1087.3V480z"/>
	</defs>
	<linearGradient id="SVGID_8_" gradientUnits="userSpaceOnUse" x1="536.873" y1="480" x2="536.873" y2="66.1563">
		<stop  offset="0" style="stop-color:#4F5D68"/>
		<stop  offset="1" style="stop-color:#262F34"/>
	</linearGradient>
	<use xlink:href="#SVGID_7_"  style="overflow:visible;fill:url(#SVGID_8_);"/>
	<clipPath id="SVGID_9_">
		<use xlink:href="#SVGID_7_"  style="overflow:visible;"/>
	</clipPath>
</g>
<g>
	<path class="st68" d="M540.6,388.1c-0.1,0.1,0,0.2,0.2,0.2C540.7,388.2,540.7,388.1,540.6,388.1z"/>
	<path class="st68" d="M1064.5,454.9l4.8,0.1v-5.5l-4.8,0.2l0.1-4.4l-4.5-0.1v-11.1l-2.8-0.2l-0.2-3.1l-7.6-1.6l0.3-3l4.2,0.1l0.1-2
		l2.9-0.9l0.7-2.6l2.6-0.7l-2.1-18.8c0,0,9.7-10.5,9.3-10.5c-0.3,0-5.8-6.5-5.8-6.5l-5.4,4.1l-5.9-10.7h-5.3l-3.8-4.7l3.1-3.2
		l0.3-4.8l5.6-0.7l-5.2-1.4l5.2-2.9l-6.7-0.2l3.8-4.2l-6.3,3l-0.5-5.3l-2.6,5l-1.8-0.1l-3.7-2.9l1.9,5l-3.9-0.5V356l-0.9-0.5
		l-0.4-13.6l-2.5-3.2l0.1-0.7l4.5-0.1v-3.8l-1.1-1.3l-3.3-0.2l-0.3-1.1l3.6-0.4V328l-1.2-1.8l-0.1-1.5l-1.3-1.4l1.9-3.7V317
		l-7.6,9.2v3.8l1.3,1.4l0.3,0.9h-1.3l-1.3,1.6v4.1l2,1l0,4.7h2.5v4.8l-4.1,17.2v6.8l2.3,1.8v7.6l2,3.9l-2,10.1v4h2.2l0.4,1.9
		l-0.3,8.2h1.7l0.1,9l-1.8,6.5v18.9l-3.8-0.1v5l-5.3-0.1l1.2,6l4.5,0l-5.1,8.8c0,0-2.4-16-21.9-25.9c-1.8-0.9-3.6-1.7-5.3-2.3
		c-8.9-10.2-25.7-8.3-25.7-8.3v-8.1l-3.5,1c-1-3.5-3-5.3-4.7-6.3v-57h-22v42h-1.5V417l-0.9,0.8h-5.9V255.4l-27.8-0.3v130.8
		c-2.7,0.3-5.2,1.2-7.2,2.2V269.2l-20.4-19l-24.6,18.7l0.3,102.2c-3.7-0.4-6.9,0.1-9.7,1V179.4l-13.7-0.2l-0.2-2.6l10.7,0.1l3.3-1.4
		V173l-2.6-2l-11.6-0.2l-1.9-74.7l-2,74.7h-12.2l-2.6,1.7l0.2,2.6l2.8,1.3h11.7v2.1h-15.8v185.2l-5.8-4.6l-9.5,9.9v12.1h-3v28.6h-3
		v12.8h-6.3V356h-6.7v-20.4h-12.8V356h-1.7v18.4h-20v3c-2.7,0-4.5-0.1-4.5-0.1v1h-1.8v-13.5H724v-6.4h-25.3v31.2h-9.3v25.1h-4.6
		v-4.6H677v-3h-3.7V403h-4.6v11.8h-3.1v-22L659,356l-6.5,36.8v20.9l-2.2,0.5v-66.2h-33.9v13.3h-4.9v26.7H610l-2.5-10.8l-3.2,10.8
		h-8.6c0-10.8,0-24.6,0-24.6h-6.4v5.1H571v-3.9h-8.7v5.6h-6.5v-4.3h-6.9v22.3c-3.4,0.1-7.2,0.2-8.1-0.1c0.5,1.7-0.2,13.6-0.2,13.6
		h-5.1v14.5h-4.1v-23.1l-4.7-8.3l-4.7,9.9v16.5h-3.5v-60.7H494v9.7h-2.7v20.9h-8.8V352h-15.5v-23.7h-19.7V340h-19.1v46.2h-1.8v19
		l-1.8,1.7V261.8H421v-23.9h-3.6v-10.1h-3.6v-4h-3.9v-5.5l-3.3,0.6v-2.8l-2-0.3c0,0-0.2-23.3,0-27.5c0.2-4.8-5.2-5.3-5.2-5.3v-12.2
		h-1.6v12.1c-6.3,0.2-6.6,4.7-6.6,4.7v30.6h-4.9v4.9h-3.9v4.9l-3.9,0.3v8.6l-3,0.3v24.2h-2v121.7l-3,2.3v2.5c-0.2,0-0.3,0-0.3,0v7
		h-4.3v-68.6h-20.2V400h-0.9l-9.5-8.8v-52v-7.7h-6v-5.1h-15.8v-34.6h-14v71.5h-13.1v-60.4h-17v92.1h-4.3v-5.6l-7,0.3v-7.8h-0.4v-5
		h-6.4v-4.3h-2.1v-40.8h-23.4v37.4h-4.6v-37.4h-21v31h-6.6v12.7l-2.4-1.3l-3,3.2v5l-3,0.6v27.5h-4.6v-87l-2-1.9v-9.6l-4-3.7v-21.9
		l-5.6-5v-6.8l-0.9-1v-5.6l-1.5-1.2v-7.2l-2.2-0.4v-7.2l-0.9-0.6v-4.6l-1.3-1v-4.2l-1.7-3.4l-0.1-32.6v0.6l-0.8,32h-1.1v6l-3.1,6.2
		v5.3l-3.3,3.1v6.8h-2.2v7.4l-1.6,1.5v5.9l-1.2,1.1v6.2h-1.3v21.4H143v5.5h-3.7v92.2h-4.5v-5h-2.6V356H89.8v57.8
		c-3.3,0.2-6.5,0.2-6.5-0.6c0,0.4,0,4,0,8.7l-1.8,1.7v-28.7h-12v29.9h-6v-37.2H35.4v50.8h-7.1v-26.2H0.5v18.5v49.7l1080-0.6
		C1080.7,459.9,1064.5,454.9,1064.5,454.9z"/>
</g>
<rect x="141.7" y="320.7" class="st69" width="5.3" height="5.5"/>
<rect x="151.3" y="304.8" class="st69" width="5.3" height="5.5"/>
<rect x="164.2" y="293.3" class="st69" width="5.3" height="5.5"/>
<rect x="155.1" y="272.6" class="st69" width="5.3" height="5.5"/>
<rect x="170.7" y="343" class="st69" width="5.3" height="5.5"/>
<rect x="150.1" y="349.5" class="st69" width="5.3" height="5.5"/>
<rect x="39.7" y="393.7" class="st69" width="5.3" height="5.5"/>
<rect x="170.7" y="365.6" transform="matrix(-1 -4.485890e-11 4.485890e-11 -1 346.75 736.7083)" class="st69" width="5.3" height="5.5"/>
<rect x="141.7" y="387.9" transform="matrix(-1 -4.485890e-11 4.485890e-11 -1 288.75 781.2083)" class="st69" width="5.3" height="5.5"/>
<rect x="162.4" y="394.4" transform="matrix(-1 -4.485890e-11 4.485890e-11 -1 330 794.3333)" class="st69" width="5.3" height="5.5"/>
<rect x="93.2" y="359.6" class="st69" width="5.3" height="5.5"/>
<rect x="122.2" y="381.8" class="st69" width="5.3" height="5.5"/>
<rect x="101.6" y="388.4" class="st69" width="5.3" height="5.5"/>
<rect x="93.2" y="426.7" transform="matrix(-1 -4.485890e-11 4.485890e-11 -1 191.75 858.9375)" class="st69" width="5.3" height="5.5"/>
<rect x="113.9" y="433.3" transform="matrix(-1 -4.485890e-11 4.485890e-11 -1 233 872.0625)" class="st69" width="5.3" height="5.5"/>
<rect x="273.5" y="314.8" class="st69" width="5.3" height="5.5"/>
<rect x="356.8" y="365.4" class="st69" width="5.3" height="5.5"/>
<rect x="349.8" y="333.4" class="st69" width="5.3" height="5.5"/>
<rect x="303.8" y="303.4" class="st69" width="5.3" height="5.5"/>
<rect x="312.9" y="342.5" class="st69" width="5.3" height="5.5"/>
<rect x="283.7" y="371.3" class="st69" width="5.3" height="5.5"/>
<rect x="312.7" y="371.3" class="st69" width="5.3" height="5.5"/>
<rect x="293.4" y="400.3" class="st69" width="5.3" height="5.5"/>
<rect x="312.7" y="419.6" class="st69" width="5.3" height="5.5"/>
<rect x="274" y="458.3" class="st69" width="5.3" height="5.5"/>
<rect x="322.7" y="457.9" class="st69" width="5.3" height="5.5"/>
<rect x="207.6" y="343.7" class="st69" width="5.3" height="5.5"/>
<rect x="226.9" y="351.4" class="st69" width="5.3" height="5.5"/>
<rect x="217.8" y="400.2" class="st69" width="5.3" height="5.5"/>
<rect x="246.8" y="400.2" class="st69" width="5.3" height="5.5"/>
<rect x="227.4" y="429.2" class="st69" width="5.3" height="5.5"/>
<rect x="152.4" y="428" class="st69" width="5.3" height="5.5"/>
<rect x="191.2" y="437.7" class="st69" width="5.3" height="5.5"/>
<rect x="162.1" y="457" class="st69" width="5.3" height="5.5"/>
<rect x="45" y="437.7" class="st69" width="5.3" height="5.5"/>
<rect x="83.8" y="447.4" class="st69" width="5.3" height="5.5"/>
<rect x="54.7" y="466.7" class="st69" width="5.3" height="5.5"/>
<rect x="3.6" y="436.8" class="st69" width="5.3" height="5.5"/>
<rect x="13.3" y="465.8" class="st69" width="5.3" height="5.5"/>
<rect x="437.4" y="350.6" class="st69" width="5.3" height="5.5"/>
<rect x="495.8" y="401.4" class="st69" width="5.3" height="5.5"/>
<rect x="505.8" y="372.4" class="st69" width="5.3" height="5.5"/>
<rect x="499.8" y="355.4" class="st69" width="5.3" height="5.5"/>
<rect x="456.8" y="358.4" class="st69" width="5.3" height="5.5"/>
<rect x="447.6" y="407.1" class="st69" width="5.3" height="5.5"/>
<rect x="476.7" y="407.1" class="st69" width="5.3" height="5.5"/>
<rect x="457.3" y="436.1" class="st69" width="5.3" height="5.5"/>
<rect x="476.7" y="455.5" class="st69" width="5.3" height="5.5"/>
<rect x="557.5" y="376.9" class="st69" width="5.3" height="5.5"/>
<rect x="576.9" y="384.6" class="st69" width="5.3" height="5.5"/>
<rect x="567.7" y="433.4" class="st69" width="5.3" height="5.5"/>
<rect x="596.7" y="433.4" class="st69" width="5.3" height="5.5"/>
<rect x="577.4" y="462.4" class="st69" width="5.3" height="5.5"/>
<rect x="513.4" y="432" class="st69" width="5.3" height="5.5"/>
<rect x="617.5" y="363.8" class="st69" width="5.3" height="5.5"/>
<rect x="636.9" y="371.6" class="st69" width="5.3" height="5.5"/>
<rect x="656.8" y="420.3" class="st69" width="5.3" height="5.5"/>
<rect x="637.4" y="449.3" class="st69" width="5.3" height="5.5"/>
<rect x="656.8" y="468.7" class="st69" width="5.3" height="5.5"/>
<rect x="705.3" y="371.3" class="st69" width="5.3" height="5.5"/>
<rect x="744.6" y="389" class="st69" width="5.3" height="5.5"/>
<rect x="744.5" y="427.8" class="st69" width="5.3" height="5.5"/>
<rect x="710.7" y="389" class="st69" width="5.3" height="5.5"/>
<rect x="700.5" y="427.8" class="st69" width="5.3" height="5.5"/>
<rect x="725.1" y="456.8" class="st69" width="5.3" height="5.5"/>
<rect x="791.3" y="441.7" class="st69" width="5.3" height="5.5"/>
<rect x="810.7" y="449.5" class="st69" width="5.3" height="5.5"/>
<rect x="903.8" y="385.1" class="st69" width="5.3" height="5.5"/>
<rect x="904.3" y="267" class="st69" width="5.3" height="5.5"/>
<rect x="903.8" y="433.4" class="st69" width="5.3" height="5.5"/>
<rect x="914" y="296" class="st69" width="5.3" height="5.5"/>
<rect x="904.3" y="344.3" class="st69" width="5.3" height="5.5"/>
<rect x="1021.6" y="334.1" class="st69" width="2.4" height="2.5"/>
<rect x="1024.6" y="334.1" class="st69" width="2.4" height="2.5"/>
<rect x="1027.8" y="334.1" class="st69" width="2.4" height="2.5"/>
<rect x="938.2" y="371.6" class="st69" width="5.3" height="5.5"/>
<rect x="947.9" y="400.6" class="st69" width="5.3" height="5.5"/>
<rect x="938.2" y="449" class="st69" width="5.3" height="5.5"/>
<rect x="898.3" y="456.4" class="st69" width="5.3" height="5.5"/>
<rect x="952.7" y="430.7" class="st69" width="5.3" height="5.5"/>
<rect x="991.4" y="440.3" class="st69" width="5.3" height="5.5"/>
<rect x="962.4" y="459.7" class="st69" width="5.3" height="5.5"/>
<rect x="383.2" y="240.2" class="st69" width="5.3" height="5.5"/>
<rect x="400.6" y="227" class="st69" width="5.3" height="5.5"/>
<rect x="395.6" y="248" class="st69" width="5.3" height="5.5"/>
<rect x="386.4" y="296.7" class="st69" width="5.3" height="5.5"/>
<rect x="415.5" y="296.7" class="st69" width="5.3" height="5.5"/>
<rect x="396.1" y="325.7" class="st69" width="5.3" height="5.5"/>
<rect x="415.5" y="345" class="st69" width="5.3" height="5.5"/>
<rect x="376.7" y="383.7" class="st69" width="5.3" height="5.5"/>
<rect x="415.5" y="393.4" class="st69" width="5.3" height="5.5"/>
<rect x="386.4" y="412.7" class="st69" width="5.3" height="5.5"/>
<rect x="415.5" y="441.7" class="st69" width="5.3" height="5.5"/>
<rect x="376.7" y="461" class="st69" width="5.3" height="5.5"/>
<rect x="880.9" y="273.2" transform="matrix(-1 -4.486246e-11 4.486246e-11 -1 1765.924 550.6429)" class="st69" width="4" height="4.2"/>
<rect x="866.2" y="279.1" transform="matrix(-1 -4.486246e-11 4.486246e-11 -1 1736.3811 562.46)" class="st69" width="4" height="4.2"/>
<rect x="851" y="316.3" transform="matrix(-1 -4.486246e-11 4.486246e-11 -1 1706.0758 636.7936)" class="st69" width="4" height="4.2"/>
<rect x="880.9" y="326.8" transform="matrix(-1 -4.486246e-11 4.486246e-11 -1 1765.924 657.6829)" class="st69" width="4" height="4.2"/>
<rect x="815.3" y="293.5" transform="matrix(-1 -4.486246e-11 4.486246e-11 -1 1634.7145 591.2434)" class="st69" width="4" height="4.2"/>
<rect x="851" y="369.8" transform="matrix(-1 -4.486246e-11 4.486246e-11 -1 1706.0758 743.8335)" class="st69" width="4" height="4.2"/>
<rect x="880.9" y="380" transform="matrix(-1 -4.486246e-11 4.486246e-11 -1 1765.924 764.1829)" class="st69" width="4" height="4.2"/>
<rect x="866.2" y="385.9" transform="matrix(-1 -4.486246e-11 4.486246e-11 -1 1736.3811 776)" class="st69" width="4" height="4.2"/>
<rect x="851" y="423.1" transform="matrix(-1 -4.486246e-11 4.486246e-11 -1 1706.0758 850.3335)" class="st69" width="4" height="4.2"/>
<rect x="827.1" y="380" transform="matrix(-1 -4.486246e-11 4.486246e-11 -1 1658.2992 764.1829)" class="st69" width="4" height="4.2"/>
<rect x="812.4" y="385.9" transform="matrix(-1 -4.486246e-11 4.486246e-11 -1 1628.7562 776)" class="st69" width="4" height="4.2"/>
<rect x="829.4" y="181.6" transform="matrix(-1 -4.465018e-11 4.465018e-11 -1 1661.9464 366.4428)" class="st69" width="3.1" height="3.2"/>
<rect x="817.9" y="208.9" transform="matrix(-1 -4.494595e-11 4.494595e-11 -1 1638.8419 420.8862)" class="st69" width="3.1" height="3.2"/>
<rect x="806.6" y="225.7" transform="matrix(-1 -4.494595e-11 4.494595e-11 -1 1616.3185 454.5985)" class="st69" width="3.1" height="3.2"/>
<rect x="829.1" y="231.3" transform="matrix(-1 -4.494595e-11 4.494595e-11 -1 1661.3652 465.836)" class="st69" width="3.1" height="3.2"/>
<rect x="812.1" y="265" transform="matrix(-1 -4.494595e-11 4.494595e-11 -1 1627.2402 533.2606)" class="st69" width="3.1" height="3.2"/>
<rect x="829.1" y="310" transform="matrix(-1 -4.494595e-11 4.494595e-11 -1 1661.3652 623.16)" class="st69" width="3.1" height="3.2"/>
<rect x="829.1" y="310.8" transform="matrix(-1 -4.465018e-11 4.465018e-11 -1 1661.3652 624.8253)" class="st69" width="3.1" height="3.2"/>
<rect x="823.5" y="344.5" transform="matrix(-1 -4.465018e-11 4.465018e-11 -1 1650.1035 692.2499)" class="st69" width="3.1" height="3.2"/>
<rect x="806.6" y="361.4" transform="matrix(-1 -4.494595e-11 4.494595e-11 -1 1616.3185 725.9622)" class="st69" width="3.1" height="3.2"/>
<rect x="353.4" y="187.2" class="st17" width="475.3" height="39.3"/>
<text transform="matrix(1 0 0 1 353.417 215.668)" class="st16 st4 st70">GOOD DESIGN IS GOOD BUSINESS</text>
<rect x="276.3" y="245.7" class="st17" width="529.5" height="42.3"/>
<text transform="matrix(1 0 0 1 401.0336 254.7764)"><tspan x="0" y="0" class="st16 st10 st59">Lorem ipsum dolor sit amet, consectetur adipisicing elit, sed do eiusmod</tspan><tspan x="-29.1" y="17" class="st16 st10 st59">tempor incididunt ut labore et dolore magna aliqua. Ut enim ad minim veniam esseum.</tspan></text>
<path class="st3" d="M638.3,350.5H443.8c-2.8,0-5-2.3-5-5v-31.3c0-2.8,2.3-5,5-5h194.5c2.8,0,5,2.3,5,5v31.3
	C643.3,348.2,641.1,350.5,638.3,350.5z"/>
<text transform="matrix(1 0 0 1 496.5511 336.375)" class="st16 st4 st8">LEARN MORE</text>
<rect x="604.1" y="1399.7" class="st17" width="263" height="88.3"/>
<text transform="matrix(1 0 0 1 604.0834 1415.627)"><tspan x="0" y="0" class="st3 st71 st72">Titre</tspan><tspan x="0" y="17" class="st13 st10 st11">Lorem ipsum dolor sit amet, consectetur adipisicing elit, </tspan><tspan x="0" y="34" class="st13 st10 st11">sed do eiusmod tempor incididunt ut labore et dolore </tspan><tspan x="0" y="51" class="st13 st10 st11">magna aliqua. Ut enim ad minim veniam, quis nostrud </tspan><tspan x="0" y="68" class="st13 st10 st11">exercitation</tspan></text>
<rect x="216.1" y="1595.7" class="st17" width="263" height="88.3"/>
<text transform="matrix(1 0 0 1 216.0834 1611.627)"><tspan x="0" y="0" class="st3 st71 st72">Titre</tspan><tspan x="0" y="17" class="st13 st10 st11">Lorem ipsum dolor sit amet, consectetur adipisicing elit, </tspan><tspan x="0" y="34" class="st13 st10 st11">sed do eiusmod tempor incididunt ut labore et dolore </tspan><tspan x="0" y="51" class="st13 st10 st11">magna aliqua. Ut enim ad minim veniam, quis nostrud </tspan><tspan x="0" y="68" class="st13 st10 st11">exercitation</tspan></text>
<g>
	<g>
		<defs>
			<rect id="SVGID_10_" x="613.8" y="546.3" width="52.9" height="49.1"/>
		</defs>
		<clipPath id="SVGID_11_">
			<use xlink:href="#SVGID_10_"  style="overflow:visible;"/>
		</clipPath>
	</g>
</g>
<g>
	<g>
		<defs>
			<rect id="SVGID_12_" x="613.6" y="546.3" width="52.8" height="49.1"/>
		</defs>
		<clipPath id="SVGID_13_">
			<use xlink:href="#SVGID_12_"  style="overflow:visible;"/>
		</clipPath>
		<path class="st73" d="M646.2,562.1c0,8.1-6.6,14.8-14.8,14.8c-8.1,0-14.8-6.6-14.8-14.8c0-8.1,6.6-14.8,14.8-14.8
			C639.6,547.3,646.2,554,646.2,562.1L646.2,562.1z M646.2,562.1"/>
		<path class="st74" d="M666.3,585.1C666.3,585,666.3,585,666.3,585.1c0-0.1,0-0.2,0-0.2c0,0,0-0.1,0-0.1c0,0,0-0.1,0-0.1
			c0,0,0-0.1,0-0.1c0,0,0-0.1-0.1-0.1c0,0,0-0.1-0.1-0.1c0,0,0,0-0.1-0.1l-0.1-0.1c0,0-0.1,0-0.1-0.1c0,0,0,0-0.1,0l-11.9-5.9
			c0,0-0.1,0-0.1,0c-0.2-0.1-5.1-1.8-9.1,0l-8.8,3.2c0,0-0.1,0-0.1,0c-1.3,0.6-1.9,1.9-1.7,3.2c0.3,1.4,1.4,2.3,2.7,2.4h0
			c0.1,0,0.5,0,4.5-0.3c1.8-0.1,3.6-0.2,3.7-0.2c0.5,0,0.9-0.4,0.9-0.9c0-0.5-0.4-1-1-1c-0.1,0-0.1,0-3.8,0.2
			c-1.9,0.1-4,0.3-4.3,0.3c-0.7-0.1-0.8-0.6-0.9-0.8c-0.1-0.4,0-0.9,0.5-1.1l8.8-3.2c0,0,0,0,0.1,0c3.1-1.4,7.1-0.1,7.6,0l5.3,2.6
			l-2.9,6.9c-1.4-0.9-3.2-1.1-4.8-0.6l-11.9,3.6c-1.4,0.4-3,0.3-4.3-0.4L616,582c-0.7-0.4-0.5-1-0.4-1.1c0.1-0.2,0.3-0.7,1-0.5
			l14.4,4.8c0.5,0.2,1.1-0.1,1.2-0.6c0.2-0.5-0.1-1.1-0.6-1.2l-14.5-4.8c0,0,0,0-0.1,0c-1.4-0.4-2.8,0.3-3.4,1.7
			c-0.6,1.4,0,2.9,1.3,3.6l18.6,10.1c1.8,1,3.9,1.2,5.8,0.6l11.9-3.6c1.1-0.3,2.3-0.2,3.2,0.4l6,3.8c0,0,0.1,0,0.1,0c0,0,0,0,0,0h0
			c0,0,0,0,0,0c0,0,0.1,0,0.1,0c0,0,0,0,0,0c0,0,0.1,0,0.1,0c0,0,0,0,0,0c0,0,0.1,0,0.1,0c0,0,0.1,0,0.1,0c0,0,0,0,0,0
			c0,0,0.1,0,0.1,0c0,0,0,0,0,0c0,0,0.1,0,0.1,0c0,0,0,0,0,0c0,0,0,0,0.1,0c0,0,0,0,0,0c0,0,0,0,0.1,0c0,0,0,0,0,0l0.1-0.1l0,0
			c0,0,0,0,0-0.1c0,0,0,0,0,0c0,0,0,0,0,0c0,0,0,0,0,0c0,0,0-0.1,0-0.1l4.3-9.2c0,0,0-0.1,0-0.1c0,0,0-0.1,0-0.1c0,0,0-0.1,0-0.1
			C666.3,585.2,666.3,585.2,666.3,585.1C666.3,585.1,666.3,585.1,666.3,585.1L666.3,585.1z M664.1,585.6l-3.4,7.3l-3.5-2.2l3-7
			L664.1,585.6z M664.1,585.6"/>
	</g>
	<path d="M630.1,563.1h2.7c1.1,0,2,0.9,2,2c0,1.1-0.9,2-2,2h-4.9c-0.5,0-1,0.4-1,1s0.4,1,1,1h2.6v1.9c0,0.5,0.4,1,1,1s1-0.4,1-1
		v-1.9h0.4c2.2,0,4-1.8,4-4c0-2.2-1.8-4-4-4h-2.7c-1.1,0-2-0.9-2-2c0-1.1,0.9-2,2-2h4.8c0.5,0,1-0.4,1-1s-0.4-1-1-1h-2.5v-1.9
		c0-0.5-0.4-1-1-1s-1,0.4-1,1v1.9h-0.4c-2.2,0-4,1.8-4,4C626.1,561.3,627.9,563.1,630.1,563.1L630.1,563.1z M630.1,563.1"/>
	<path d="M631.5,577.8c8.7,0,15.7-7.1,15.7-15.7c0-8.7-7.1-15.7-15.7-15.7c-8.7,0-15.7,7.1-15.7,15.7
		C615.8,570.8,622.8,577.8,631.5,577.8L631.5,577.8z M631.5,548.3c7.6,0,13.8,6.2,13.8,13.8c0,7.6-6.2,13.8-13.8,13.8
		c-7.6,0-13.8-6.2-13.8-13.8C617.7,554.5,623.9,548.3,631.5,548.3L631.5,548.3z M631.5,548.3"/>
</g>
<g>
	<g>
		<defs>
			<rect id="SVGID_14_" x="811.6" y="546" width="54.2" height="49.4"/>
		</defs>
		<clipPath id="SVGID_15_">
			<use xlink:href="#SVGID_14_"  style="overflow:visible;"/>
		</clipPath>
		<rect x="834.1" y="552.7" class="st75" width="9.4" height="19.8"/>
		<path class="st76" d="M812.6,595.2h52.2c0.6,0,1-0.5,1-1c0-0.2-0.1-0.4-0.1-0.5l-5.1-10.3v-27.6c0-0.6-0.5-1-1-1h-11.1
			c-0.6,0-1,0.5-1,1c0,0.6,0.5,1,1,1h10.1v25.9h-39.7v-25.9h9.9c0.6,0,1-0.5,1-1c0-0.6-0.5-1-1-1h-10.9c-0.6,0-1,0.5-1,1v27.6
			l-5.1,10.3c-0.2,0.3-0.1,0.7,0,1C812,595,812.3,595.2,812.6,595.2L812.6,595.2z M831.8,593.2l0.9-1.8h12.1l0.9,1.8H831.8z
			 M818.5,584.7H859l4.2,8.5h-15.3l-1.6-3.2c-0.2-0.3-0.5-0.6-0.9-0.6h-13.3c-0.4,0-0.7,0.2-0.9,0.6l-1.6,3.2h-15.3L818.5,584.7z
			 M818.5,584.7"/>
	</g>
	<path d="M844.5,549.6c0-2-1.6-3.6-3.6-3.6h-4.2c-2,0-3.6,1.6-3.6,3.6v2.7c0,0.1,0,0.1,0,0.2c0,0.1,0,0.1,0,0.2v19.8
		c0,0,0,0.1,0,0.1c0,0,0,0,0,0c0,0.1,0,0.1,0.1,0.2c0,0,0,0,0,0c0,0,0,0.1,0.1,0.1c0,0,0,0,0,0c0,0,0,0,0,0l4.7,6.2
		c0.2,0.2,0.5,0.4,0.8,0.4c0.3,0,0.6-0.1,0.8-0.4l4.7-6.2c0,0,0,0,0,0c0,0,0,0,0,0c0,0,0-0.1,0.1-0.1c0,0,0,0,0,0
		c0-0.1,0-0.1,0.1-0.2c0,0,0,0,0,0c0,0,0-0.1,0-0.1v-19.8c0-0.1,0-0.1,0-0.2c0-0.1,0-0.1,0-0.2L844.5,549.6L844.5,549.6z
		 M835.1,553.4h2.7v18.1h-2.7V553.4z M839.8,553.4h2.7v18.1h-2.7V553.4z M835.1,549.6c0-0.9,0.7-1.6,1.6-1.6h4.2
		c0.9,0,1.6,0.7,1.6,1.6v1.7h-7.4V549.6z M838.8,577l-2.7-3.5h5.3L838.8,577z M838.8,577"/>
</g>
<g>
	<path class="st77" d="M466,563.9h-9.5l-5.1,4.9v-4.9h-2.2c-1.5,0-2.7-1.2-2.7-2.7v-10.2c0-1.5,1.2-2.7,2.7-2.7H466
		c1.5,0,2.7,1.2,2.7,2.7v10.2C468.8,562.7,467.5,563.9,466,563.9L466,563.9z M466,563.9"/>
	<path d="M449.5,577.2c-4.2-3.5-8.7-5.9-10.3-6.7v-6.2c0.9-0.8,1.5-2,1.5-3.3v-7.4c0-4.2-3.5-7.7-7.7-7.7h-1.6
		c-4.2,0-7.7,3.5-7.7,7.7v7.4c0,1.3,0.5,2.5,1.5,3.3v6.2c-1.6,0.8-6.1,3.2-10.3,6.7c-1.1,0.9-1.7,2.2-1.7,3.6v5
		c0,0.6,0.5,1.1,1.1,1.1s1.1-0.5,1.1-1.1v-5c0-0.8,0.3-1.5,0.9-2c4.5-3.7,9.4-6.1,10.3-6.6c0.5-0.2,0.8-0.7,0.8-1.2v-7.1
		c0-0.3-0.2-0.7-0.5-0.9c-0.6-0.4-1-1.1-1-1.9v-7.4c0-3.1,2.5-5.6,5.6-5.6h1.6c3.1,0,5.6,2.5,5.6,5.6v7.4c0,0.8-0.4,1.5-1,1.9
		c-0.3,0.2-0.5,0.5-0.5,0.9v7.1c0,0.5,0.3,1,0.8,1.2c0.9,0.5,5.8,2.9,10.3,6.6c0.6,0.5,0.9,1.2,0.9,2v5c0,0.6,0.5,1.1,1.1,1.1
		s1.1-0.5,1.1-1.1v-5C451.2,579.4,450.5,578.1,449.5,577.2L449.5,577.2z M449.5,577.2"/>
	<path d="M434.6,572c-0.6,0-1.1,0.5-1.1,1.1c0,0.4-0.2,0.8-0.5,1c-0.1,0-0.1,0.1-0.2,0.1c-0.2,0.2-0.5,0.2-0.8,0.2
		c-0.8,0-1.4-0.6-1.4-1.4c0-0.6-0.5-1.1-1.1-1.1c-0.6,0-1.1,0.5-1.1,1.1c0,0.8,0.3,1.6,0.8,2.2l-0.7,17.1c0,0.3,0.1,0.6,0.3,0.8
		l2.3,2.1c0.2,0.2,0.5,0.3,0.7,0.3c0.3,0,0.5-0.1,0.7-0.3l2.4-2.1c0.2-0.2,0.4-0.5,0.3-0.8l-0.8-16.9c0.6-0.6,0.9-1.4,0.9-2.3
		C435.7,572.4,435.2,572,434.6,572L434.6,572z M432.1,593l-1.3-1.2l0.7-15.4c0.2,0,0.5,0.1,0.7,0.1c0.2,0,0.4,0,0.5,0l0.7,15.4
		L432.1,593z M432.1,593"/>
	<path d="M466,547.2h-16.7c-2.1,0-3.8,1.7-3.8,3.8v10.2c0,2.1,1.7,3.8,3.8,3.8h1.1v3.8c0,0.4,0.3,0.8,0.6,1c0.1,0.1,0.3,0.1,0.4,0.1
		c0.3,0,0.5-0.1,0.7-0.3l4.8-4.6h9.1c2.1,0,3.8-1.7,3.8-3.8v-10.2C469.8,548.8,468.1,547.2,466,547.2L466,547.2z M467.7,561.2
		c0,0.9-0.8,1.7-1.7,1.7h-9.5c-0.3,0-0.5,0.1-0.7,0.3l-3.3,3.2v-2.4c0-0.6-0.5-1.1-1.1-1.1h-2.2c-0.9,0-1.7-0.8-1.7-1.7v-10.2
		c0-0.9,0.8-1.7,1.7-1.7H466c0.9,0,1.7,0.8,1.7,1.7V561.2z M467.7,561.2"/>
	<path d="M457.7,555.3c-0.3,0-0.5,0.1-0.7,0.3c-0.2,0.2-0.3,0.5-0.3,0.7c0,0.3,0.1,0.5,0.3,0.7c0.2,0.2,0.5,0.3,0.7,0.3
		c0.3,0,0.5-0.1,0.7-0.3c0.2-0.2,0.3-0.5,0.3-0.7c0-0.3-0.1-0.5-0.3-0.7C458.2,555.4,457.9,555.3,457.7,555.3L457.7,555.3z
		 M457.7,555.3"/>
	<path d="M461.6,555.3c-0.3,0-0.5,0.1-0.7,0.3c-0.2,0.2-0.3,0.5-0.3,0.7c0,0.3,0.1,0.5,0.3,0.7c0.2,0.2,0.5,0.3,0.7,0.3
		c0.3,0,0.5-0.1,0.7-0.3c0.2-0.2,0.3-0.5,0.3-0.7c0-0.3-0.1-0.5-0.3-0.7C462.1,555.4,461.8,555.3,461.6,555.3L461.6,555.3z
		 M461.6,555.3"/>
	<path d="M453.8,555.3c-0.3,0-0.5,0.1-0.7,0.3c-0.2,0.2-0.3,0.5-0.3,0.7c0,0.3,0.1,0.5,0.3,0.7c0.2,0.2,0.5,0.3,0.7,0.3
		c0.3,0,0.5-0.1,0.7-0.3c0.2-0.2,0.3-0.5,0.3-0.7c0-0.3-0.1-0.5-0.3-0.7C454.3,555.4,454,555.3,453.8,555.3L453.8,555.3z
		 M453.8,555.3"/>
</g>
<line class="st78" x1="801.5" y1="615.6" x2="876" y2="615.6"/>
<line class="st78" x1="603" y1="615.6" x2="677.5" y2="615.6"/>
<line class="st78" x1="404.2" y1="615.6" x2="478.8" y2="615.6"/>
<line class="st78" x1="206.3" y1="615.6" x2="280.9" y2="615.6"/>
<g>
	<g>
		<defs>
			<rect id="SVGID_16_" x="206.3" y="546.5" width="74.5" height="49.1"/>
		</defs>
		<clipPath id="SVGID_17_">
			<use xlink:href="#SVGID_16_"  style="overflow:visible;"/>
		</clipPath>
		<path class="st79" d="M207.7,571.2l8-23.3l9.5,3.3l-8,23.3L207.7,571.2z M207.7,571.2"/>
		<path class="st80" d="M232.1,549.9l-0.9,0.5c-1.2,0.6-2.5,0.6-3.7,0.2L226,550c-0.1-0.1-0.2-0.1-0.3-0.1l-9.5-3.3
			c-0.7-0.2-1.5,0.1-1.7,0.8l-8,23.3c-0.1,0.3-0.1,0.7,0.1,1c0.2,0.3,0.4,0.6,0.8,0.7l9.5,3.3c0.2,0,0.3,0.1,0.4,0.1
			c0.6,0,1.1-0.4,1.3-0.9l7.5-21.9l0.5,0.2c1.9,0.7,4,0.5,5.8-0.3l0.9-0.5c1.1-0.6,2.5-0.6,3.7-0.2l17.5,6c-0.2,0.7-0.5,1.6-1.2,2.1
			c-0.7,0.5-1.9,0.5-3.3,0l-7.8-2.7c-0.4-0.1-0.8-0.1-1.1,0.1c-0.3,0.2-0.6,0.5-0.7,0.9c0,0-1.1,4.1-4.5,5.9c-2.2,1.2-4.9,1.2-8,0.1
			c-0.7-0.2-1.5,0.1-1.7,0.8c-0.2,0.7,0.1,1.5,0.9,1.7c1.8,0.6,3.5,0.9,5.1,0.9c1.9,0,3.6-0.4,5.1-1.2c3.1-1.7,4.7-4.6,5.4-6.3
			l6.5,2.2c2.3,0.8,4.3,0.7,5.8-0.4c2.4-1.7,2.5-5.1,2.5-5.2c0-0.6-0.4-1.1-0.9-1.3l-18.6-6.4C236,548.9,233.9,549,232.1,549.9
			L232.1,549.9z M216.4,572.7l-6.9-2.4l7.1-20.7l6.9,2.4L216.4,572.7z M216.4,572.7"/>
		<path class="st81" d="M270.3,574.6l-10.8-22.1l9-4.4l10.8,22.1L270.3,574.6z M270.3,574.6"/>
		<path class="st80" d="M268.6,574.3l-3.3,3c-3,2.7-6.3,5-9.9,6.8l-17.3,8.5c-0.8,0.4-1.7,0.1-2.1-0.7c-0.4-0.8-0.1-1.7,0.7-2.1
			l0.2-0.1l9.5-4.6c0.7-0.3,1-1.2,0.6-1.8c-0.3-0.7-1.2-1-1.8-0.6l-9.5,4.6l-4.8,2.3c-0.8,0.4-1.7,0.1-2.1-0.7
			c-0.2-0.4-0.2-0.8-0.1-1.2c0.1-0.4,0.4-0.7,0.8-0.9l3.6-1.8l10.3-5c0.7-0.3,1-1.2,0.6-1.8c-0.3-0.7-1.2-1-1.8-0.6l-10.3,5.1
			l-0.4,0.2l-4.9,2.4c-0.4,0.2-0.8,0.2-1.2,0.1c-0.4-0.1-0.7-0.4-0.9-0.8c-0.4-0.8-0.1-1.7,0.7-2.1l1.7-0.8l3.5-1.7l1-0.5l8-3.9
			c0.7-0.3,1-1.2,0.6-1.8c-0.3-0.7-1.2-1-1.8-0.6l-8.7,4.2l-3.8,1.9c-0.8,0.4-1.7,0.1-2.1-0.7c-0.2-0.4-0.2-0.8-0.1-1.2
			c0.1-0.4,0.4-0.7,0.8-0.9l6.6-3.2c0.7-0.3,1-1.2,0.6-1.8c-0.3-0.7-1.2-1-1.8-0.6l-6.6,3.2c-1,0.5-1.8,1.4-2.2,2.5
			c-0.4,1.1-0.3,2.2,0.2,3.3c0.3,0.6,0.8,1.2,1.3,1.6c-1,1.3-1.2,3-0.5,4.5c0.5,1,1.4,1.8,2.5,2.2c0.5,0.2,0.9,0.2,1.4,0.2
			c0,0.7,0.1,1.4,0.4,2c0.7,1.5,2.3,2.4,3.9,2.4c0.6,0,1.3-0.1,1.9-0.4l1-0.5c0,0.5,0.2,1,0.4,1.5c0.7,1.5,2.3,2.4,3.9,2.4
			c0.6,0,1.3-0.1,1.9-0.4l17.3-8.5c3.9-1.9,7.4-4.3,10.6-7.2l3.9-3.6l8.9-4.3c0.7-0.3,1-1.2,0.6-1.8l-10.8-22.1
			c-0.2-0.3-0.4-0.6-0.8-0.7c-0.3-0.1-0.7-0.1-1,0.1l-9,4.4c-0.7,0.3-1,1.2-0.6,1.8L268.6,574.3z M267.9,549.9l9.6,19.7l-6.6,3.2
			l-9.6-19.7L267.9,549.9z M267.9,549.9"/>
	</g>
</g>
<g>
	<path class="st2" d="M287.8,940.7l-3.2-8h-19.2l-3.2,8h-7.4c-1.7,0-3,1.4-3,3v23.5c0,1.7,1.4,3.1,3.1,3.1h40.3
		c1.7,0,3.1-1.4,3.1-3.1v-23.5c0-1.7-1.4-3-3-3H287.8z M287.8,940.7"/>
	<path class="st82" d="M288.6,953.5c0,7.5-6.1,13.6-13.6,13.6c-7.5,0-13.6-6.1-13.6-13.6c0-7.5,6.1-13.6,13.6-13.6
		C282.6,939.9,288.6,946,288.6,953.5L288.6,953.5z M288.6,953.5"/>
	<g>
		<defs>
			<rect id="SVGID_18_" x="251.8" y="932.4" width="46.8" height="38.9"/>
		</defs>
		<clipPath id="SVGID_19_">
			<use xlink:href="#SVGID_18_"  style="overflow:visible;"/>
		</clipPath>
		<path class="st83" d="M288.6,953.5c0,7.5-6.1,13.6-13.6,13.6c-7.5,0-13.6-6.1-13.6-13.6c0-7.5,6.1-13.6,13.6-13.6
			C282.6,939.9,288.6,946,288.6,953.5L288.6,953.5z M288.6,953.5"/>
	</g>
	<path class="st6" d="M283.8,953.5c0,4.9-3.9,8.8-8.8,8.8c-4.9,0-8.8-3.9-8.8-8.8c0-4.9,3.9-8.8,8.8-8.8
		C279.9,944.7,283.8,948.7,283.8,953.5L283.8,953.5z M283.8,953.5"/>
	<rect x="256.6" y="936.7" class="st84" width="3.2" height="4"/>
	<path class="st3" d="M295,946.3c0,1.3-1.1,2.4-2.4,2.4c-1.3,0-2.4-1.1-2.4-2.4c0-1.3,1.1-2.4,2.4-2.4C294,943.9,295,945,295,946.3
		L295,946.3z M295,946.3"/>
	<path class="st85" d="M277.4,953.5c0,2.9,1.1,5.4,2.9,7c2.1-1.6,3.5-4.2,3.5-7s-1.4-5.4-3.5-7C278.6,948.1,277.4,950.6,277.4,953.5
		L277.4,953.5z M277.4,953.5"/>
	<path class="st85" d="M266.2,953.5c0,2.9,1.4,5.4,3.5,7c1.7-1.6,2.9-4.2,2.9-7s-1.1-5.4-2.9-7C267.6,948.1,266.2,950.6,266.2,953.5
		L266.2,953.5z M266.2,953.5"/>
	<path class="st86" d="M275,963.1c-5.3,0-9.6-4.3-9.6-9.6c0-5.3,4.3-9.6,9.6-9.6c5.3,0,9.6,4.3,9.6,9.6
		C284.6,958.8,280.3,963.1,275,963.1L275,963.1z M275,945.5c-4.4,0-8,3.6-8,8c0,4.4,3.6,8,8,8c4.4,0,8-3.6,8-8
		C283,949.1,279.5,945.5,275,945.5L275,945.5z M275,945.5"/>
	<path class="st87" d="M279,950.7c0,1.5-1.3,2.8-2.8,2.8c-1.5,0-2.8-1.3-2.8-2.8s1.3-2.8,2.8-2.8C277.8,947.9,279,949.2,279,950.7
		L279,950.7z M279,950.7"/>
	<path class="st88" d="M275.8,951.9c0,0.9-0.7,1.6-1.6,1.6c-0.9,0-1.6-0.7-1.6-1.6c0-0.9,0.7-1.6,1.6-1.6
		C275.1,950.3,275.8,951,275.8,951.9L275.8,951.9z M275.8,951.9"/>
	<path class="st89" d="M273.4,950.3c0,0.9-0.7,1.6-1.6,1.6s-1.6-0.7-1.6-1.6c0-0.9,0.7-1.6,1.6-1.6S273.4,949.4,273.4,950.3
		L273.4,950.3z M273.4,950.3"/>
</g>
<g>
	<path class="st2" d="M360.2,1432.7l-3.2-8h-19.2l-3.2,8h-7.4c-1.7,0-3,1.4-3,3v23.5c0,1.7,1.4,3.1,3.1,3.1h40.3
		c1.7,0,3.1-1.4,3.1-3.1v-23.5c0-1.7-1.4-3-3-3H360.2z M360.2,1432.7"/>
	<path class="st82" d="M361,1445.5c0,7.5-6.1,13.6-13.6,13.6c-7.5,0-13.6-6.1-13.6-13.6c0-7.5,6.1-13.6,13.6-13.6
		C354.9,1431.9,361,1438,361,1445.5L361,1445.5z M361,1445.5"/>
	<g>
		<defs>
			<rect id="SVGID_20_" x="324.2" y="1424.4" width="46.8" height="38.9"/>
		</defs>
		<clipPath id="SVGID_21_">
			<use xlink:href="#SVGID_20_"  style="overflow:visible;"/>
		</clipPath>
		<path class="st90" d="M361,1445.5c0,7.5-6.1,13.6-13.6,13.6c-7.5,0-13.6-6.1-13.6-13.6c0-7.5,6.1-13.6,13.6-13.6
			C354.9,1431.9,361,1438,361,1445.5L361,1445.5z M361,1445.5"/>
	</g>
	<path class="st6" d="M356.2,1445.5c0,4.9-3.9,8.8-8.8,8.8c-4.9,0-8.8-3.9-8.8-8.8c0-4.9,3.9-8.8,8.8-8.8
		C352.2,1436.7,356.2,1440.7,356.2,1445.5L356.2,1445.5z M356.2,1445.5"/>
	<rect x="329" y="1428.7" class="st84" width="3.2" height="4"/>
	<path class="st3" d="M367.4,1438.3c0,1.3-1.1,2.4-2.4,2.4c-1.3,0-2.4-1.1-2.4-2.4c0-1.3,1.1-2.4,2.4-2.4
		C366.3,1435.9,367.4,1437,367.4,1438.3L367.4,1438.3z M367.4,1438.3"/>
	<path class="st85" d="M349.8,1445.5c0,2.9,1.1,5.4,2.9,7c2.1-1.6,3.5-4.2,3.5-7s-1.4-5.4-3.5-7
		C350.9,1440.1,349.8,1442.6,349.8,1445.5L349.8,1445.5z M349.8,1445.5"/>
	<path class="st85" d="M338.6,1445.5c0,2.9,1.4,5.4,3.5,7c1.7-1.6,2.9-4.2,2.9-7s-1.1-5.4-2.9-7
		C340,1440.1,338.6,1442.6,338.6,1445.5L338.6,1445.5z M338.6,1445.5"/>
	<path class="st86" d="M347.4,1455.1c-5.3,0-9.6-4.3-9.6-9.6c0-5.3,4.3-9.6,9.6-9.6c5.3,0,9.6,4.3,9.6,9.6
		C357,1450.8,352.7,1455.1,347.4,1455.1L347.4,1455.1z M347.4,1437.5c-4.4,0-8,3.6-8,8c0,4.4,3.6,8,8,8s8-3.6,8-8
		C355.4,1441.1,351.8,1437.5,347.4,1437.5L347.4,1437.5z M347.4,1437.5"/>
	<path class="st87" d="M351.4,1442.7c0,1.5-1.3,2.8-2.8,2.8c-1.5,0-2.8-1.3-2.8-2.8c0-1.5,1.3-2.8,2.8-2.8
		C350.1,1439.9,351.4,1441.2,351.4,1442.7L351.4,1442.7z M351.4,1442.7"/>
	<path class="st88" d="M348.2,1443.9c0,0.9-0.7,1.6-1.6,1.6c-0.9,0-1.6-0.7-1.6-1.6c0-0.9,0.7-1.6,1.6-1.6
		C347.5,1442.3,348.2,1443,348.2,1443.9L348.2,1443.9z M348.2,1443.9"/>
	<path class="st89" d="M345.8,1442.3c0,0.9-0.7,1.6-1.6,1.6c-0.9,0-1.6-0.7-1.6-1.6c0-0.9,0.7-1.6,1.6-1.6
		C345.1,1440.7,345.8,1441.4,345.8,1442.3L345.8,1442.3z M345.8,1442.3"/>
</g>
<g>
	<path class="st2" d="M748.1,1630.8l-3.2-8h-19.2l-3.2,8h-7.4c-1.7,0-3,1.4-3,3v23.5c0,1.7,1.4,3.1,3.1,3.1h40.3
		c1.7,0,3.1-1.4,3.1-3.1v-23.5c0-1.7-1.4-3-3-3H748.1z M748.1,1630.8"/>
	<path class="st82" d="M748.9,1643.6c0,7.5-6.1,13.6-13.6,13.6c-7.5,0-13.6-6.1-13.6-13.6s6.1-13.6,13.6-13.6
		C742.8,1630,748.9,1636,748.9,1643.6L748.9,1643.6z M748.9,1643.6"/>
	<g>
		<defs>
			<rect id="SVGID_22_" x="712.1" y="1622.4" width="46.8" height="38.9"/>
		</defs>
		<clipPath id="SVGID_23_">
			<use xlink:href="#SVGID_22_"  style="overflow:visible;"/>
		</clipPath>
		<path class="st91" d="M748.9,1643.6c0,7.5-6.1,13.6-13.6,13.6c-7.5,0-13.6-6.1-13.6-13.6c0-7.5,6.1-13.6,13.6-13.6
			C742.8,1630,748.9,1636,748.9,1643.6L748.9,1643.6z M748.9,1643.6"/>
	</g>
	<path class="st6" d="M744.1,1643.6c0,4.9-3.9,8.8-8.8,8.8c-4.9,0-8.8-3.9-8.8-8.8c0-4.9,3.9-8.8,8.8-8.8
		C740.2,1634.8,744.1,1638.7,744.1,1643.6L744.1,1643.6z M744.1,1643.6"/>
	<rect x="716.9" y="1626.8" class="st84" width="3.2" height="4"/>
	<path class="st3" d="M755.3,1636.4c0,1.3-1.1,2.4-2.4,2.4c-1.3,0-2.4-1.1-2.4-2.4c0-1.3,1.1-2.4,2.4-2.4
		C754.2,1634,755.3,1635,755.3,1636.4L755.3,1636.4z M755.3,1636.4"/>
	<path class="st85" d="M737.7,1643.6c0,2.9,1.1,5.4,2.9,7c2.1-1.6,3.5-4.2,3.5-7s-1.4-5.4-3.5-7
		C738.8,1638.1,737.7,1640.7,737.7,1643.6L737.7,1643.6z M737.7,1643.6"/>
	<path class="st85" d="M726.5,1643.6c0,2.9,1.4,5.4,3.5,7c1.7-1.6,2.9-4.2,2.9-7s-1.1-5.4-2.9-7
		C727.9,1638.1,726.5,1640.7,726.5,1643.6L726.5,1643.6z M726.5,1643.6"/>
	<path class="st86" d="M735.3,1653.2c-5.3,0-9.6-4.3-9.6-9.6c0-5.3,4.3-9.6,9.6-9.6c5.3,0,9.6,4.3,9.6,9.6
		C744.9,1648.8,740.6,1653.2,735.3,1653.2L735.3,1653.2z M735.3,1635.6c-4.4,0-8,3.6-8,8s3.6,8,8,8c4.4,0,8-3.6,8-8
		S739.7,1635.6,735.3,1635.6L735.3,1635.6z M735.3,1635.6"/>
	<path class="st87" d="M739.3,1640.8c0,1.5-1.3,2.8-2.8,2.8c-1.5,0-2.8-1.3-2.8-2.8s1.3-2.8,2.8-2.8
		C738,1638,739.3,1639.2,739.3,1640.8L739.3,1640.8z M739.3,1640.8"/>
	<path class="st88" d="M736.1,1642c0,0.9-0.7,1.6-1.6,1.6c-0.9,0-1.6-0.7-1.6-1.6c0-0.9,0.7-1.6,1.6-1.6
		C735.4,1640.4,736.1,1641.1,736.1,1642L736.1,1642z M736.1,1642"/>
	<path class="st89" d="M733.7,1640.4c0,0.9-0.7,1.6-1.6,1.6c-0.9,0-1.6-0.7-1.6-1.6c0-0.9,0.7-1.6,1.6-1.6
		C733,1638.8,733.7,1639.5,733.7,1640.4L733.7,1640.4z M733.7,1640.4"/>
</g>
<g>
	<path class="st2" d="M554.1,940.7l-3.2-8h-19.2l-3.2,8h-7.4c-1.7,0-3,1.4-3,3v23.5c0,1.7,1.4,3.1,3.1,3.1h40.3
		c1.7,0,3.1-1.4,3.1-3.1v-23.5c0-1.7-1.4-3-3-3H554.1z M554.1,940.7"/>
	<path class="st82" d="M554.9,953.5c0,7.5-6.1,13.6-13.6,13.6c-7.5,0-13.6-6.1-13.6-13.6c0-7.5,6.1-13.6,13.6-13.6
		C548.8,939.9,554.9,946,554.9,953.5L554.9,953.5z M554.9,953.5"/>
	<g>
		<defs>
			<rect id="SVGID_24_" x="518.1" y="932.4" width="46.8" height="38.9"/>
		</defs>
		<clipPath id="SVGID_25_">
			<use xlink:href="#SVGID_24_"  style="overflow:visible;"/>
		</clipPath>
		<path class="st92" d="M554.9,953.5c0,7.5-6.1,13.6-13.6,13.6c-7.5,0-13.6-6.1-13.6-13.6c0-7.5,6.1-13.6,13.6-13.6
			C548.8,939.9,554.9,946,554.9,953.5L554.9,953.5z M554.9,953.5"/>
	</g>
	<path class="st6" d="M550.1,953.5c0,4.9-3.9,8.8-8.8,8.8c-4.9,0-8.8-3.9-8.8-8.8c0-4.9,3.9-8.8,8.8-8.8
		C546.2,944.7,550.1,948.7,550.1,953.5L550.1,953.5z M550.1,953.5"/>
	<rect x="522.9" y="936.7" class="st84" width="3.2" height="4"/>
	<path class="st3" d="M561.3,946.3c0,1.3-1.1,2.4-2.4,2.4c-1.3,0-2.4-1.1-2.4-2.4c0-1.3,1.1-2.4,2.4-2.4
		C560.2,943.9,561.3,945,561.3,946.3L561.3,946.3z M561.3,946.3"/>
	<path class="st85" d="M543.7,953.5c0,2.9,1.1,5.4,2.9,7c2.1-1.6,3.5-4.2,3.5-7s-1.4-5.4-3.5-7C544.8,948.1,543.7,950.6,543.7,953.5
		L543.7,953.5z M543.7,953.5"/>
	<path class="st85" d="M532.5,953.5c0,2.9,1.4,5.4,3.5,7c1.7-1.6,2.9-4.2,2.9-7s-1.1-5.4-2.9-7C533.9,948.1,532.5,950.6,532.5,953.5
		L532.5,953.5z M532.5,953.5"/>
	<path class="st86" d="M541.3,963.1c-5.3,0-9.6-4.3-9.6-9.6c0-5.3,4.3-9.6,9.6-9.6c5.3,0,9.6,4.3,9.6,9.6
		C550.9,958.8,546.6,963.1,541.3,963.1L541.3,963.1z M541.3,945.5c-4.4,0-8,3.6-8,8c0,4.4,3.6,8,8,8c4.4,0,8-3.6,8-8
		C549.3,949.1,545.7,945.5,541.3,945.5L541.3,945.5z M541.3,945.5"/>
	<path class="st87" d="M545.3,950.7c0,1.5-1.3,2.8-2.8,2.8c-1.5,0-2.8-1.3-2.8-2.8s1.3-2.8,2.8-2.8
		C544,947.9,545.3,949.2,545.3,950.7L545.3,950.7z M545.3,950.7"/>
	<path class="st88" d="M542.1,951.9c0,0.9-0.7,1.6-1.6,1.6c-0.9,0-1.6-0.7-1.6-1.6c0-0.9,0.7-1.6,1.6-1.6
		C541.4,950.3,542.1,951,542.1,951.9L542.1,951.9z M542.1,951.9"/>
	<path class="st89" d="M539.7,950.3c0,0.9-0.7,1.6-1.6,1.6c-0.9,0-1.6-0.7-1.6-1.6c0-0.9,0.7-1.6,1.6-1.6
		C539,948.7,539.7,949.4,539.7,950.3L539.7,950.3z M539.7,950.3"/>
</g>
<g>
	<path class="st2" d="M817.2,940.7l-3.2-8h-19.2l-3.2,8h-7.4c-1.7,0-3,1.4-3,3v23.5c0,1.7,1.4,3.1,3.1,3.1h40.3
		c1.7,0,3.1-1.4,3.1-3.1v-23.5c0-1.7-1.4-3-3-3H817.2z M817.2,940.7"/>
	<path class="st82" d="M818,953.5c0,7.5-6.1,13.6-13.6,13.6c-7.5,0-13.6-6.1-13.6-13.6c0-7.5,6.1-13.6,13.6-13.6
		C811.9,939.9,818,946,818,953.5L818,953.5z M818,953.5"/>
	<g>
		<defs>
			<rect id="SVGID_26_" x="781.2" y="932.4" width="46.8" height="38.9"/>
		</defs>
		<clipPath id="SVGID_27_">
			<use xlink:href="#SVGID_26_"  style="overflow:visible;"/>
		</clipPath>
		<path class="st93" d="M818,953.5c0,7.5-6.1,13.6-13.6,13.6c-7.5,0-13.6-6.1-13.6-13.6c0-7.5,6.1-13.6,13.6-13.6
			C811.9,939.9,818,946,818,953.5L818,953.5z M818,953.5"/>
	</g>
	<path class="st6" d="M813.2,953.5c0,4.9-3.9,8.8-8.8,8.8c-4.9,0-8.8-3.9-8.8-8.8c0-4.9,3.9-8.8,8.8-8.8
		C809.3,944.7,813.2,948.7,813.2,953.5L813.2,953.5z M813.2,953.5"/>
	<rect x="786" y="936.7" class="st84" width="3.2" height="4"/>
	<path class="st3" d="M824.4,946.3c0,1.3-1.1,2.4-2.4,2.4c-1.3,0-2.4-1.1-2.4-2.4c0-1.3,1.1-2.4,2.4-2.4
		C823.3,943.9,824.4,945,824.4,946.3L824.4,946.3z M824.4,946.3"/>
	<path class="st85" d="M806.8,953.5c0,2.9,1.1,5.4,2.9,7c2.1-1.6,3.5-4.2,3.5-7s-1.4-5.4-3.5-7C808,948.1,806.8,950.6,806.8,953.5
		L806.8,953.5z M806.8,953.5"/>
	<path class="st85" d="M795.6,953.5c0,2.9,1.4,5.4,3.5,7c1.7-1.6,2.9-4.2,2.9-7s-1.1-5.4-2.9-7C797,948.1,795.6,950.6,795.6,953.5
		L795.6,953.5z M795.6,953.5"/>
	<path class="st86" d="M804.4,963.1c-5.3,0-9.6-4.3-9.6-9.6c0-5.3,4.3-9.6,9.6-9.6c5.3,0,9.6,4.3,9.6,9.6
		C814,958.8,809.7,963.1,804.4,963.1L804.4,963.1z M804.4,945.5c-4.4,0-8,3.6-8,8c0,4.4,3.6,8,8,8c4.4,0,8-3.6,8-8
		C812.4,949.1,808.8,945.5,804.4,945.5L804.4,945.5z M804.4,945.5"/>
	<path class="st87" d="M808.4,950.7c0,1.5-1.3,2.8-2.8,2.8c-1.5,0-2.8-1.3-2.8-2.8s1.3-2.8,2.8-2.8
		C807.2,947.9,808.4,949.2,808.4,950.7L808.4,950.7z M808.4,950.7"/>
	<path class="st88" d="M805.2,951.9c0,0.9-0.7,1.6-1.6,1.6c-0.9,0-1.6-0.7-1.6-1.6c0-0.9,0.7-1.6,1.6-1.6
		C804.5,950.3,805.2,951,805.2,951.9L805.2,951.9z M805.2,951.9"/>
	<path class="st89" d="M802.8,950.3c0,0.9-0.7,1.6-1.6,1.6c-0.9,0-1.6-0.7-1.6-1.6c0-0.9,0.7-1.6,1.6-1.6
		C802.1,948.7,802.8,949.4,802.8,950.3L802.8,950.3z M802.8,950.3"/>
</g>
<text transform="matrix(0.9433 0 0 1 869.0576 800)" class="st16 st4 st20">LOREM</text>
<g>
	<path class="st2" d="M581.4,2122l-2.1-5.1H567l-2.1,5.1h-4.7c-1.1,0-1.9,0.9-1.9,1.9v15.1c0,1.1,0.9,2,2,2h25.8c1.1,0,2-0.9,2-2
		V2124c0-1.1-0.9-1.9-1.9-1.9H581.4z M581.4,2122"/>
	<path class="st82" d="M581.9,2130.2c0,4.8-3.9,8.7-8.7,8.7c-4.8,0-8.7-3.9-8.7-8.7s3.9-8.7,8.7-8.7
		C578,2121.5,581.9,2125.4,581.9,2130.2L581.9,2130.2z M581.9,2130.2"/>
	<g>
		<defs>
			<rect id="SVGID_28_" x="558.3" y="2116.7" width="30" height="24.9"/>
		</defs>
		<clipPath id="SVGID_29_">
			<use xlink:href="#SVGID_28_"  style="overflow:visible;"/>
		</clipPath>
		<path class="st94" d="M581.9,2130.2c0,4.8-3.9,8.7-8.7,8.7c-4.8,0-8.7-3.9-8.7-8.7c0-4.8,3.9-8.7,8.7-8.7
			C578,2121.5,581.9,2125.4,581.9,2130.2L581.9,2130.2z M581.9,2130.2"/>
	</g>
	<path class="st6" d="M578.8,2130.2c0,3.1-2.5,5.6-5.6,5.6c-3.1,0-5.6-2.5-5.6-5.6c0-3.1,2.5-5.6,5.6-5.6
		C576.3,2124.6,578.8,2127.1,578.8,2130.2L578.8,2130.2z M578.8,2130.2"/>
	<rect x="561.4" y="2119.5" class="st84" width="2.1" height="2.6"/>
	<path class="st3" d="M586,2125.6c0,0.8-0.7,1.5-1.5,1.5c-0.9,0-1.5-0.7-1.5-1.5c0-0.9,0.7-1.5,1.5-1.5
		C585.3,2124.1,586,2124.8,586,2125.6L586,2125.6z M586,2125.6"/>
	<path class="st85" d="M574.7,2130.2c0,1.8,0.7,3.5,1.8,4.5c1.4-1,2.3-2.7,2.3-4.5s-0.9-3.5-2.3-4.5
		C575.5,2126.8,574.7,2128.4,574.7,2130.2L574.7,2130.2z M574.7,2130.2"/>
	<path class="st85" d="M567.6,2130.2c0,1.8,0.9,3.5,2.3,4.5c1.1-1,1.8-2.7,1.8-4.5s-0.7-3.5-1.8-4.5
		C568.4,2126.8,567.6,2128.4,567.6,2130.2L567.6,2130.2z M567.6,2130.2"/>
	<path class="st86" d="M573.2,2136.4c-3.4,0-6.2-2.8-6.2-6.2c0-3.4,2.8-6.2,6.2-6.2s6.2,2.8,6.2,6.2
		C579.4,2133.6,576.6,2136.4,573.2,2136.4L573.2,2136.4z M573.2,2125.1c-2.8,0-5.1,2.3-5.1,5.1c0,2.8,2.3,5.1,5.1,5.1
		s5.1-2.3,5.1-5.1C578.3,2127.4,576,2125.1,573.2,2125.1L573.2,2125.1z M573.2,2125.1"/>
	<path class="st87" d="M575.8,2128.4c0,1-0.8,1.8-1.8,1.8c-1,0-1.8-0.8-1.8-1.8c0-1,0.8-1.8,1.8-1.8
		C575,2126.7,575.8,2127.5,575.8,2128.4L575.8,2128.4z M575.8,2128.4"/>
	<path class="st88" d="M573.7,2129.2c0,0.6-0.5,1-1,1c-0.6,0-1-0.5-1-1s0.5-1,1-1C573.3,2128.2,573.7,2128.7,573.7,2129.2
		L573.7,2129.2z M573.7,2129.2"/>
	<path class="st89" d="M572.2,2128.2c0,0.6-0.5,1-1,1c-0.6,0-1-0.5-1-1c0-0.6,0.5-1,1-1C571.7,2127.2,572.2,2127.6,572.2,2128.2
		L572.2,2128.2z M572.2,2128.2"/>
</g>
<g>
	<path class="st2" d="M581.4,2187.4l-2.1-5.1H567l-2.1,5.1h-4.7c-1.1,0-1.9,0.9-1.9,1.9v15.1c0,1.1,0.9,2,2,2h25.8c1.1,0,2-0.9,2-2
		v-15.1c0-1.1-0.9-1.9-1.9-1.9H581.4z M581.4,2187.4"/>
	<path class="st82" d="M581.9,2195.6c0,4.8-3.9,8.7-8.7,8.7c-4.8,0-8.7-3.9-8.7-8.7s3.9-8.7,8.7-8.7
		C578,2186.9,581.9,2190.8,581.9,2195.6L581.9,2195.6z M581.9,2195.6"/>
	<g>
		<defs>
			<rect id="SVGID_30_" x="558.3" y="2182" width="30" height="24.9"/>
		</defs>
		<clipPath id="SVGID_31_">
			<use xlink:href="#SVGID_30_"  style="overflow:visible;"/>
		</clipPath>
		<path class="st95" d="M581.9,2195.6c0,4.8-3.9,8.7-8.7,8.7c-4.8,0-8.7-3.9-8.7-8.7c0-4.8,3.9-8.7,8.7-8.7
			C578,2186.9,581.9,2190.8,581.9,2195.6L581.9,2195.6z M581.9,2195.6"/>
	</g>
	<path class="st6" d="M578.8,2195.6c0,3.1-2.5,5.6-5.6,5.6c-3.1,0-5.6-2.5-5.6-5.6c0-3.1,2.5-5.6,5.6-5.6
		C576.3,2189.9,578.8,2192.5,578.8,2195.6L578.8,2195.6z M578.8,2195.6"/>
	<rect x="561.4" y="2184.8" class="st84" width="2.1" height="2.6"/>
	<path class="st3" d="M586,2191c0,0.8-0.7,1.5-1.5,1.5c-0.9,0-1.5-0.7-1.5-1.5c0-0.9,0.7-1.5,1.5-1.5
		C585.3,2189.4,586,2190.1,586,2191L586,2191z M586,2191"/>
	<path class="st85" d="M574.7,2195.6c0,1.8,0.7,3.5,1.8,4.5c1.4-1,2.3-2.7,2.3-4.5s-0.9-3.5-2.3-4.5
		C575.5,2192.1,574.7,2193.7,574.7,2195.6L574.7,2195.6z M574.7,2195.6"/>
	<path class="st85" d="M567.6,2195.6c0,1.8,0.9,3.5,2.3,4.5c1.1-1,1.8-2.7,1.8-4.5s-0.7-3.5-1.8-4.5
		C568.4,2192.1,567.6,2193.7,567.6,2195.6L567.6,2195.6z M567.6,2195.6"/>
	<path class="st86" d="M573.2,2201.7c-3.4,0-6.2-2.8-6.2-6.2s2.8-6.2,6.2-6.2s6.2,2.8,6.2,6.2S576.6,2201.7,573.2,2201.7
		L573.2,2201.7z M573.2,2190.4c-2.8,0-5.1,2.3-5.1,5.1c0,2.8,2.3,5.1,5.1,5.1s5.1-2.3,5.1-5.1C578.3,2192.8,576,2190.4,573.2,2190.4
		L573.2,2190.4z M573.2,2190.4"/>
	<path class="st87" d="M575.8,2193.8c0,1-0.8,1.8-1.8,1.8c-1,0-1.8-0.8-1.8-1.8c0-1,0.8-1.8,1.8-1.8
		C575,2192,575.8,2192.8,575.8,2193.8L575.8,2193.8z M575.8,2193.8"/>
	<path class="st88" d="M573.7,2194.6c0,0.6-0.5,1-1,1c-0.6,0-1-0.5-1-1s0.5-1,1-1C573.3,2193.5,573.7,2194,573.7,2194.6
		L573.7,2194.6z M573.7,2194.6"/>
	<path class="st89" d="M572.2,2193.5c0,0.6-0.5,1-1,1c-0.6,0-1-0.5-1-1c0-0.6,0.5-1,1-1C571.7,2192.5,572.2,2193,572.2,2193.5
		L572.2,2193.5z M572.2,2193.5"/>
</g>
<g>
	<path class="st2" d="M581.4,2253.7l-2.1-5.1H567l-2.1,5.1h-4.7c-1.1,0-1.9,0.9-1.9,1.9v15.1c0,1.1,0.9,2,2,2h25.8c1.1,0,2-0.9,2-2
		v-15.1c0-1.1-0.9-1.9-1.9-1.9H581.4z M581.4,2253.7"/>
	<path class="st82" d="M581.9,2261.9c0,4.8-3.9,8.7-8.7,8.7c-4.8,0-8.7-3.9-8.7-8.7c0-4.8,3.9-8.7,8.7-8.7
		C578,2253.2,581.9,2257.1,581.9,2261.9L581.9,2261.9z M581.9,2261.9"/>
	<g>
		<defs>
			<rect id="SVGID_32_" x="558.3" y="2248.4" width="30" height="24.9"/>
		</defs>
		<clipPath id="SVGID_33_">
			<use xlink:href="#SVGID_32_"  style="overflow:visible;"/>
		</clipPath>
		<path class="st96" d="M581.9,2261.9c0,4.8-3.9,8.7-8.7,8.7c-4.8,0-8.7-3.9-8.7-8.7c0-4.8,3.9-8.7,8.7-8.7
			C578,2253.2,581.9,2257.1,581.9,2261.9L581.9,2261.9z M581.9,2261.9"/>
	</g>
	<path class="st6" d="M578.8,2261.9c0,3.1-2.5,5.6-5.6,5.6c-3.1,0-5.6-2.5-5.6-5.6c0-3.1,2.5-5.6,5.6-5.6
		C576.3,2256.3,578.8,2258.8,578.8,2261.9L578.8,2261.9z M578.8,2261.9"/>
	<rect x="561.4" y="2251.1" class="st84" width="2.1" height="2.6"/>
	<path class="st3" d="M586,2257.3c0,0.8-0.7,1.5-1.5,1.5c-0.9,0-1.5-0.7-1.5-1.5c0-0.9,0.7-1.5,1.5-1.5
		C585.3,2255.8,586,2256.4,586,2257.3L586,2257.3z M586,2257.3"/>
	<path class="st85" d="M574.7,2261.9c0,1.8,0.7,3.5,1.8,4.5c1.4-1,2.3-2.7,2.3-4.5c0-1.8-0.9-3.5-2.3-4.5
		C575.5,2258.4,574.7,2260.1,574.7,2261.9L574.7,2261.9z M574.7,2261.9"/>
	<path class="st85" d="M567.6,2261.9c0,1.8,0.9,3.5,2.3,4.5c1.1-1,1.8-2.7,1.8-4.5c0-1.8-0.7-3.5-1.8-4.5
		C568.4,2258.4,567.6,2260.1,567.6,2261.9L567.6,2261.9z M567.6,2261.9"/>
	<path class="st86" d="M573.2,2268.1c-3.4,0-6.2-2.8-6.2-6.2c0-3.4,2.8-6.2,6.2-6.2s6.2,2.8,6.2,6.2
		C579.4,2265.3,576.6,2268.1,573.2,2268.1L573.2,2268.1z M573.2,2256.8c-2.8,0-5.1,2.3-5.1,5.1c0,2.8,2.3,5.1,5.1,5.1
		s5.1-2.3,5.1-5.1C578.3,2259.1,576,2256.8,573.2,2256.8L573.2,2256.8z M573.2,2256.8"/>
	<path class="st87" d="M575.8,2260.1c0,1-0.8,1.8-1.8,1.8c-1,0-1.8-0.8-1.8-1.8s0.8-1.8,1.8-1.8
		C575,2258.3,575.8,2259.1,575.8,2260.1L575.8,2260.1z M575.8,2260.1"/>
	<path class="st88" d="M573.7,2260.9c0,0.6-0.5,1-1,1c-0.6,0-1-0.5-1-1s0.5-1,1-1C573.3,2259.9,573.7,2260.3,573.7,2260.9
		L573.7,2260.9z M573.7,2260.9"/>
	<path class="st89" d="M572.2,2259.9c0,0.6-0.5,1-1,1c-0.6,0-1-0.5-1-1c0-0.6,0.5-1,1-1C571.7,2258.8,572.2,2259.3,572.2,2259.9
		L572.2,2259.9z M572.2,2259.9"/>
</g>
<text transform="matrix(1 0 0 1 493.6209 2250.2744)" class="st16 st10 st97">Lorem</text>
</svg>
